<?xml version="1.0" encoding="utf-8"?>
<!-- Generator: Adobe Illustrator 24.0.1, SVG Export Plug-In . SVG Version: 6.00 Build 0)  -->
<svg version="1.1" id="lupa" xmlns="http://www.w3.org/2000/svg" xmlns:xlink="http://www.w3.org/1999/xlink" x="0px" y="0px"
	 viewBox="0 0 110 110" style="enable-background:new 0 0 110 110;" xml:space="preserve">
<style type="text/css">
	.st0{clip-path:url(#SVGID_2_);}
	.st1{clip-path:url(#SVGID_4_);enable-background:new    ;}
	.st2{clip-path:url(#SVGID_6_);}
	.st3{clip-path:url(#SVGID_8_);fill:#0075E2;}
	.st4{clip-path:url(#SVGID_8_);fill:#0052A5;}
	.st5{clip-path:url(#SVGID_8_);fill:none;stroke:#979797;stroke-width:1.8209;stroke-miterlimit:10;}
</style>
<g>
	<defs>
		<path id="SVGID_1_" d="M41.2,88.2c0.9,0,1.7,0.8,1.7,1.7c0,0.9-0.8,1.7-1.7,1.7H14.7c-0.9,0-1.7-0.8-1.7-1.7
			c0-0.9,0.8-1.7,1.7-1.7H41.2z M14.7,81.9c-0.9,0-1.7-0.8-1.7-1.7c0-0.9,0.8-1.7,1.7-1.7h19.4c0.9,0,1.7,0.8,1.7,1.7
			c0,0.9-0.8,1.7-1.7,1.7H14.7z M14.7,72.2c-0.9,0-1.7-0.8-1.7-1.7c0-0.9,0.8-1.7,1.7-1.7h9.7c0.9,0,1.7,0.8,1.7,1.7
			c0,0.9-0.8,1.7-1.7,1.7H14.7z M22,34.9c-0.9,0-1.7-0.8-1.7-1.7c0-0.9,0.8-1.7,1.7-1.7h11.9c0.2,0,0.4,0,0.6,0.1
			c0.1,0,0.2,0.1,0.2,0.1c0.1,0.1,0.2,0.1,0.3,0.2l19.2,18.1c0.3,0.3,0.5,0.8,0.5,1.2V62c0,0.9-0.8,1.7-1.7,1.7S51.4,63,51.4,62v-9
			H33.9c-0.9,0-1.7-0.8-1.7-1.7V34.9H22z M35.6,37.1v12.5h13.3L35.6,37.1z M46.7,15.1c-0.9,0-1.7-0.8-1.7-1.7s0.8-1.7,1.7-1.7
			c8.8,0,17,4.4,21.8,11.6c0.5,0.8,0.3,1.8-0.5,2.3c-0.3,0.2-0.6,0.3-0.9,0.3c-0.6,0-1.1-0.3-1.4-0.8C61.5,18.9,54.4,15.1,46.7,15.1
			z M103.7,95.4c1.4,1.6,2,3.7,1.8,5.9c-0.2,2.1-1.3,4-2.9,5.2c-1.4,1.2-3.2,1.8-4.9,1.8c-2.2,0-4.5-1-6.1-2.9l0,0l-18-22
			c-1.4-1.6-2-3.7-1.8-5.9c0.2-1.4,0.7-2.8,1.6-3.9l-6.6-7.5c-3.6,2.5-7.6,4.4-12,5.4v26.8c0,0.9-0.8,1.7-1.7,1.7H6.2
			c-0.9,0-1.7-0.8-1.7-1.7V33.2c0-0.9,0.8-1.7,1.7-1.7h6.5c3-16,17.1-28.1,34.1-28.1c19.1,0,34.7,15.5,34.7,34.6
			c0,10.4-4.6,19.7-12,26l6.5,7.4c1.4-0.7,2.9-1,4.5-0.9c2.1,0.2,4,1.3,5.2,2.9L103.7,95.4z M46.7,6.8c-17.2,0-31.3,14-31.3,31.2
			c0,17.2,14,31.2,31.3,31.2C64,69.1,78,55.2,78,38C78,20.8,64,6.8,46.7,6.8z M51.4,96.6V72.2c-1.5,0.2-3.1,0.4-4.7,0.4
			C27.6,72.5,12,57,12,38c0-1,0.1-2.1,0.2-3.1H7.9v61.7H51.4z M102.1,100.9c0.1-1.2-0.2-2.4-1-3.4l-18-22c-0.7-0.9-1.7-1.5-2.9-1.6
			c-1.2-0.1-2.5,0.2-3.4,1c-0.9,0.7-1.5,1.7-1.6,2.9c-0.1,1.2,0.2,2.4,1,3.4l18,22c1.6,1.9,4.4,2.2,6.3,0.6
			C101.4,103.1,101.9,102.1,102.1,100.9z"/>
	</defs>
	<clipPath id="SVGID_2_">
		<use xlink:href="#SVGID_1_"  style="overflow:visible;"/>
	</clipPath>
	<g class="st0">
		<defs>
			<rect id="SVGID_3_" x="0.4" y="-0.6" width="109.3" height="113.3"/>
		</defs>
		<clipPath id="SVGID_4_">
			<use xlink:href="#SVGID_3_"  style="overflow:visible;"/>
		</clipPath>
		<g class="st1">
			<g>
				<defs>
					<rect id="SVGID_5_" x="-12.3" y="-13.4" width="134.7" height="138.4"/>
				</defs>
				<clipPath id="SVGID_6_">
					<use xlink:href="#SVGID_5_"  style="overflow:visible;"/>
				</clipPath>
				<g class="st2">
					<defs>
						<rect id="SVGID_7_" x="4.1" y="3" width="102" height="105.6"/>
					</defs>
					<clipPath id="SVGID_8_">
						<use xlink:href="#SVGID_7_"  style="overflow:visible;"/>
					</clipPath>
					<rect x="-0.1" y="-1.1" class="st3" width="110.1" height="113.9"/>
					<rect x="-11.7" y="-12.7" class="st4" width="133.8" height="137.5"/>
					<rect x="-11.7" y="-12.7" class="st5" width="133.8" height="137.5"/>
				</g>
			</g>
		</g>
	</g>
</g>
</svg>
