<svg xmlns="http://www.w3.org/2000/svg" width="121" height="119" viewBox="0 0 121 119">
    <g fill="none" fill-rule="evenodd" stroke="#0052A5" stroke-linecap="round" stroke-linejoin="round" stroke-width="3">
        <path d="M33.313 16.668c0 4.652-3.772 8.425-8.426 8.425s-8.425-3.773-8.425-8.425c0-4.653 3.771-8.426 8.425-8.426 4.654 0 8.426 3.772 8.426 8.425zM11.084 44.22c0-7.623 6.18-13.804 13.804-13.804 7.624 0 13.804 6.18 13.804 13.804M102.482 33.294c0 4.653-3.772 8.426-8.426 8.426-4.654.001-8.426-3.772-8.426-8.426 0-4.653 3.772-8.426 8.426-8.426s8.426 3.773 8.426 8.426zM80.252 60.847c0-7.623 6.18-13.804 13.804-13.804 7.624 0 13.804 6.181 13.804 13.804M55.594 82.178c0 4.653-3.772 8.426-8.426 8.426s-8.427-3.773-8.427-8.426c0-4.653 3.773-8.426 8.427-8.426s8.426 3.773 8.426 8.426zM33.363 109.731c0-7.624 6.181-13.804 13.804-13.804 7.624 0 13.804 6.18 13.804 13.804" transform="translate(1 1)"/>
        <path d="M49.268 24.308c.32 13.465-10.336 24.64-23.801 24.96C12.002 49.587.827 38.93.507 25.465.187 12.001 10.844.827 24.309.507c13.465-.32 24.639 10.336 24.959 23.801zM118.28 41.258c.32 13.465-10.336 24.64-23.801 24.96-13.465.318-24.64-10.338-24.96-23.803-.32-13.465 10.338-24.639 23.803-24.959 13.464-.319 24.639 10.337 24.959 23.802zM71.156 90.674c.32 13.465-10.337 24.64-23.802 24.96-13.465.318-24.639-10.338-24.959-23.803-.32-13.464 10.337-24.638 23.802-24.958 13.464-.32 24.64 10.336 24.96 23.801zM33.846 51.917l3.437 12.305M53.023 30.968l13.411 2.771M63.885 68.434l7.87-8.646" transform="translate(1 1)"/>
    </g>
</svg>
