<?xml version="1.0" encoding="utf-8"?>
<!-- Generator: Adobe Illustrator 24.0.1, SVG Export Plug-In . SVG Version: 6.00 Build 0)  -->
<svg version="1.1" id="Warstwa_2_1_" xmlns="http://www.w3.org/2000/svg" xmlns:xlink="http://www.w3.org/1999/xlink" x="0px"
	 y="0px" viewBox="0 0 40 40" style="enable-background:new 0 0 40 40;" xml:space="preserve">
<style type="text/css">
	.st0{fill:none;stroke:#1B1B1B;stroke-linecap:round;stroke-linejoin:round;}
</style>
<path class="st0" d="M30.8,2.7"/>
<path class="st0" d="M30.8,11"/>
<line class="st0" x1="9.9" y1="38.1" x2="9.9" y2="2.7"/>
<path class="st0" d="M1.7,34h4.5 M1.7,6.8h4.5 M1.7,12.3h4.5 M1.7,17.7h4.5 M1.7,23.1h4.5 M1.7,28.6h4.5"/>
<polygon class="st0" points="20.7,32.2 15.4,33.8 17.3,28.8 34.4,11.6 37.9,15.1 "/>
<line class="st0" x1="17.8" y1="28.6" x2="20.8" y2="31.7"/>
<line class="st0" x1="33" y1="13.5" x2="36" y2="16.5"/>
<path class="st0" d="M31.4,25.5v10.4c0,1.4-1.1,2.5-2.5,2.5H6.8c-1.4,0-2.5-1.1-2.5-2.5V5.1c0-1.4,1.1-2.5,2.5-2.5h22.1
	c1.4,0,2.5,1.1,2.5,2.5v5.8"/>
</svg>
