<?xml version="1.0" encoding="utf-8"?>
<!-- Generator: Adobe Illustrator 24.0.1, SVG Export Plug-In . SVG Version: 6.00 Build 0)  -->
<svg version="1.1" id="Warstwa_2" xmlns="http://www.w3.org/2000/svg" xmlns:xlink="http://www.w3.org/1999/xlink" x="0px" y="0px"
	 viewBox="0 0 1190.6 466.9" style="enable-background:new 0 0 1190.6 466.9;" xml:space="preserve">
<style type="text/css">
	.st0{fill:#232323;}
	.st1{fill:#FF1744;}
	.st2{fill:none;}
</style>
<g>
	<g>
		<path class="st0" d="M350.4,184h-48.3c0,0,0,0,0,0c-12.7,0-23.2,10.3-23.3,23.1v47.1c-0.1,6.1,2.4,12.1,6.8,16.2
			c4.3,4.4,10.3,6.9,16.5,6.8h47.6v13.4h-55.8v24h56.5c0.1,0,0.2,0,0.3,0c6.1,0,12-2.5,16.2-6.8c4.2-4.3,6.6-10.2,6.6-16.2V207
			c0-6.1-2.3-11.8-6.6-16.2C362.6,186.4,356.6,183.9,350.4,184z M349.7,207.8v45.6h-47.1v-45.6H349.7z"/>
		<path class="st0" d="M463.9,184h-48.3c-6.2-0.1-12.1,2.4-16.2,6.8c-4.4,4.2-6.9,10.1-6.8,16.2v47.1c0.1,12.6,10.5,22.9,23.1,23
			H464c12.6-0.1,22.9-10.5,23-23.1V207c0-6.1-2.5-12-6.8-16.2C476,186.4,470.1,183.9,463.9,184z M463.2,207.8v45.6h-46.8v-45.6
			H463.2z"/>
		<polygon class="st0" points="557.9,247.1 523.5,184 496.1,184 547.4,277.2 568.1,277.2 619,184.7 619.5,184 592,184 		"/>
		<path class="st0" d="M653.3,156h-23.8v98.1c-0.1,12.6,10,22.9,22.5,23.1c0.1,0,0.2,0,0.3,0c0.1,0,0.2,0,0.3,0h35.7v-23.8h-34.9
			v-45.6h34.9V184h-34.9V156z"/>
		<path class="st0" d="M778.8,184c-0.1,0-0.2,0-0.3,0h-48.3c-6.1-0.1-12,2.4-16.2,6.8c-4.4,4.2-6.9,10.1-6.8,16.2v47.1
			c-0.1,6.1,2.4,12.1,6.8,16.2c4.2,4.4,10,6.8,16,6.8c0.1,0,0.2,0,0.2,0h71.4v-23.8h-70.6v-10.6h70.6V207c0-6.1-2.3-11.8-6.6-16.2
			C790.7,186.5,784.8,184,778.8,184z M730.9,221.9v-14.1h46.8v14.1H730.9z"/>
		<path class="st0" d="M843.9,207.8h70.6V184h-71.4c-12.6,0.1-22.9,10.5-23,23.1v47.1c-0.1,6.1,2.4,12.1,6.8,16.2
			c4.2,4.4,10.1,6.8,16.2,6.8c0,0,0,0,0,0h71.6v-23.8h-70.9V207.8z"/>
		<path class="st0" d="M1021.2,190.8c-4.2-4.4-10.1-6.9-16.2-6.8h-47.6v-30.7h-23.8v123.9h23.8v-69.4h46.8v69.4h23.8V207
			C1028.1,201,1025.6,195.1,1021.2,190.8z"/>
	</g>
	<g>
		<path class="st1" d="M191.6,166.5l-11.4,2l3.4,105.7l69.9,43.4l-4.5-34.3L209.8,259l0-0.1l-2.3-67.9l29-5.1l-3.6-26.8
			C220.3,161.7,203.5,164.5,191.6,166.5z"/>
		<polygon class="st1" points="218.5,252.2 247.2,269.8 237.7,195.5 228.2,197.2 216.8,199.1 		"/>
		<path class="st1" d="M192.2,157.7c22.3-4.2,52.9-9.9,73.9-14.1v-27.4c-34.1,7-102.6,19.6-110.3,21l-11.4,2l5.1,156.9l110,67.9
			l-4.5-34.3l-79.1-48.9l0-0.1l-4-119.1l0.2,0C177.5,160.4,184.4,159.1,192.2,157.7z"/>
	</g>
	<g>
		<path class="st1" d="M815.6,327c1.9-1.8,2.9-4,2.9-6.6v-12.2c0-2.5-1-4.7-2.9-6.6c-1.9-1.8-4.3-2.7-6.9-2.7h-38.7v46.3h9.9v-15.6
			l0.4,0.4v-0.2l28.5-0.1C811.3,329.8,813.6,328.8,815.6,327z M808.4,320.3h-28.7v-11.9h28.7V320.3z"/>
		<path class="st1" d="M855.2,308.1h-20.4c-2.6,0-4.9,0.9-6.7,2.7c-1.9,1.8-2.8,3.9-2.8,6.4v19c0,2.5,1,4.6,2.8,6.4
			c1.9,1.8,4.1,2.7,6.7,2.7h20.4c2.6,0,4.9-0.9,6.8-2.7c1.9-1.8,2.8-3.9,2.8-6.4v-19c0-2.5-0.9-4.6-2.8-6.4
			C860.2,309,857.9,308.1,855.2,308.1z M855.1,336H835v-18.6h20.1V336z"/>
		<path class="st1" d="M882,345.2h8.3V336h-8v-40.4h-9.8v40.5c0,2.5,1,4.6,2.8,6.4C877.2,344.3,879.4,345.2,882,345.2z"/>
		<path class="st1" d="M906.4,345.2h20.4c2.7,0,5-0.9,6.8-2.7c1.9-1.8,2.8-3.9,2.8-6.4v-5c0-2.5-0.9-4.7-2.8-6.4
			c-1.9-1.8-4.2-2.7-6.8-2.7h-20.2v-4.7h20.1v1.4h9.8v-1.5c0-2.5-0.9-4.6-2.8-6.4c-1.9-1.8-4.2-2.7-6.8-2.7h-20.4
			c-2.6,0-4.9,0.9-6.7,2.7c-1.9,1.8-2.8,3.9-2.8,6.4v5c0,2.5,1,4.6,2.8,6.4c1.9,1.8,4.1,2.7,6.7,2.7h20.2v4.7h-20.1v-1.4h-9.7v1.5
			c0,2.5,1,4.6,2.8,6.4C901.5,344.3,903.8,345.2,906.4,345.2z"/>
		<polygon class="st1" points="973.2,345.2 983.2,345.2 983.2,342.4 968.3,326.7 983.2,311 983.2,308.1 973.2,308.1 959.7,322 
			953.8,322 953.8,295.7 944.1,295.7 944.1,345.2 953.8,345.2 953.8,331.3 959.7,331.3 		"/>
		<path class="st1" d="M999.3,345.2h30v-28.1c0-2.5-0.9-4.6-2.8-6.4c-1.9-1.8-4.1-2.7-6.8-2.7h-30v9.3h29.8v4.7h-29.8v14.1
			c0,2.5,0.9,4.6,2.8,6.4C994.4,344.3,996.7,345.2,999.3,345.2z M999.5,330h20.1v6h-20.1V330z"/>
	</g>
</g>
<rect x="-3" y="0.1" class="st2" width="1194.1" height="466.9"/>
</svg>
