<?xml version="1.0" encoding="utf-8"?>
<!-- Generator: Adobe Illustrator 24.0.1, SVG Export Plug-In . SVG Version: 6.00 Build 0)  -->
<svg version="1.1" id="Warstwa_1" xmlns="http://www.w3.org/2000/svg" xmlns:xlink="http://www.w3.org/1999/xlink" x="0px" y="0px"
	 viewBox="0 0 1190.6 466.9" style="enable-background:new 0 0 1190.6 466.9;" xml:space="preserve">
<style type="text/css">
	.st0{fill:#FFFFFF;}
	.st1{fill:#FF1744;}
	.st2{fill:none;}
</style>
<g>
	<g>
		<path class="st0" d="M351.2,184.6h-48.3c0,0,0,0,0,0c-12.7,0-23.2,10.3-23.3,23.1v47.1c-0.1,6.1,2.4,12.1,6.8,16.2
			c4.3,4.4,10.3,6.9,16.5,6.8h47.6v13.4h-55.8v24h56.5c0.1,0,0.2,0,0.3,0c6.1,0,12-2.5,16.2-6.8c4.2-4.3,6.6-10.2,6.6-16.2v-84.5
			c0-6.1-2.3-11.8-6.6-16.2C363.3,187,357.3,184.5,351.2,184.6z M350.4,208.4V254h-47.1v-45.6H350.4z"/>
		<path class="st0" d="M464.7,184.6h-48.3c-6.2-0.1-12.1,2.4-16.2,6.8c-4.4,4.2-6.9,10.1-6.8,16.2v47.1c0.1,12.6,10.5,22.9,23.1,23
			h48.3c12.6-0.1,22.9-10.5,23-23.1v-47.1c0-6.1-2.5-12-6.8-16.2C476.7,187,470.8,184.5,464.7,184.6z M463.9,208.4V254h-46.8v-45.6
			H463.9z"/>
		<polygon class="st0" points="558.6,247.8 524.2,184.6 496.8,184.6 548.2,277.8 568.8,277.8 619.8,185.4 620.2,184.6 592.8,184.6 
					"/>
		<path class="st0" d="M654,156.6h-23.8v98.1c-0.1,12.6,10,22.9,22.5,23.1c0.1,0,0.2,0,0.3,0c0.1,0,0.2,0,0.3,0H689V254H654v-45.6
			H689v-23.8H654V156.6z"/>
		<path class="st0" d="M779.5,184.6c-0.1,0-0.2,0-0.3,0h-48.3c-6.1-0.1-12,2.4-16.2,6.8c-4.4,4.2-6.9,10.1-6.8,16.2v47.1
			c-0.1,6.1,2.4,12.1,6.8,16.2c4.2,4.4,10,6.8,16,6.8c0.1,0,0.2,0,0.2,0h71.4V254h-70.6v-10.6h70.6v-35.7c0-6.1-2.3-11.8-6.6-16.2
			C791.4,187.1,785.5,184.6,779.5,184.6z M731.6,222.5v-14.1h46.8v14.1H731.6z"/>
		<path class="st0" d="M844.6,208.4h70.6v-23.8h-71.4c-12.6,0.1-22.9,10.5-23,23.1v47.1c-0.1,6.1,2.4,12.1,6.8,16.2
			c4.2,4.4,10.1,6.8,16.2,6.8c0,0,0,0,0,0h71.6V254h-70.9V208.4z"/>
		<path class="st0" d="M1022,191.5c-4.2-4.4-10.1-6.9-16.2-6.8h-47.6v-30.7h-23.8v123.9h23.8v-69.4h46.8v69.4h23.8v-70.1
			C1028.8,201.6,1026.3,195.7,1022,191.5z"/>
	</g>
	<g>
		<path class="st1" d="M192.3,167.1l-11.4,2l3.4,105.7l69.9,43.4l-4.5-34.3l-39.2-24.2l0-0.1l-2.3-67.9l29-5.1l-3.6-26.8
			C221,162.3,204.2,165.1,192.3,167.1z"/>
		<polygon class="st1" points="219.2,252.8 247.9,270.4 238.4,196.1 229,197.8 217.5,199.7 		"/>
		<path class="st1" d="M192.9,158.3c22.3-4.2,52.9-9.9,73.9-14.1v-27.4c-34.1,7-102.6,19.6-110.3,21l-11.4,2l5.1,156.9l110,67.9
			l-4.5-34.3l-79.1-48.9l0-0.1l-4-119.1l0.2,0C178.2,161,185.1,159.7,192.9,158.3z"/>
	</g>
	<g>
		<path class="st1" d="M816.3,327.6c1.9-1.8,2.9-4,2.9-6.6v-12.2c0-2.5-1-4.7-2.9-6.6c-1.9-1.8-4.3-2.7-6.9-2.7h-38.7v46.3h9.9
			v-15.6l0.4,0.4v-0.2l28.5-0.1C812,330.4,814.3,329.5,816.3,327.6z M809.2,320.9h-28.7V309h28.7V320.9z"/>
		<path class="st1" d="M856,308.7h-20.4c-2.6,0-4.9,0.9-6.7,2.7c-1.9,1.8-2.8,3.9-2.8,6.4v19c0,2.5,1,4.6,2.8,6.4
			c1.9,1.8,4.1,2.7,6.7,2.7H856c2.6,0,4.9-0.9,6.8-2.7c1.9-1.8,2.8-3.9,2.8-6.4v-19c0-2.5-0.9-4.6-2.8-6.4
			C860.9,309.6,858.6,308.7,856,308.7z M855.8,336.6h-20.1V318h20.1V336.6z"/>
		<path class="st1" d="M882.7,345.9h8.3v-9.3h-8v-40.4h-9.8v40.5c0,2.5,1,4.6,2.8,6.4C877.9,345,880.2,345.9,882.7,345.9z"/>
		<path class="st1" d="M907.1,345.9h20.4c2.7,0,5-0.9,6.8-2.7c1.9-1.8,2.8-3.9,2.8-6.4v-5c0-2.5-0.9-4.7-2.8-6.4
			c-1.9-1.8-4.2-2.7-6.8-2.7h-20.2V318h20.1v1.4h9.8v-1.5c0-2.5-0.9-4.6-2.8-6.4c-1.9-1.8-4.2-2.7-6.8-2.7h-20.4
			c-2.6,0-4.9,0.9-6.7,2.7c-1.9,1.8-2.8,3.9-2.8,6.4v5c0,2.5,1,4.6,2.8,6.4c1.9,1.8,4.1,2.7,6.7,2.7h20.2v4.7h-20.1v-1.4h-9.7v1.5
			c0,2.5,1,4.6,2.8,6.4C902.3,345,904.5,345.9,907.1,345.9z"/>
		<polygon class="st1" points="973.9,345.9 983.9,345.9 983.9,343 969,327.3 983.9,311.6 983.9,308.7 973.9,308.7 960.4,322.6 
			954.5,322.6 954.5,296.3 944.8,296.3 944.8,345.9 954.5,345.9 954.5,332 960.4,332 		"/>
		<path class="st1" d="M1000,345.9h30v-28.1c0-2.5-0.9-4.6-2.8-6.4c-1.9-1.8-4.1-2.7-6.8-2.7h-30v9.3h29.8v4.7h-29.8v14.1
			c0,2.5,0.9,4.6,2.8,6.4C995.1,345,997.4,345.9,1000,345.9z M1000.2,330.6h20.1v6h-20.1V330.6z"/>
	</g>
</g>
<rect x="-2.2" y="0.8" class="st2" width="1194.1" height="466.9"/>
</svg>
