<?xml version="1.0" encoding="utf-8"?>
<!-- Generator: Adobe Illustrator 24.0.1, SVG Export Plug-In . SVG Version: 6.00 Build 0)  -->
<svg version="1.1" id="info-fill" xmlns="http://www.w3.org/2000/svg" xmlns:xlink="http://www.w3.org/1999/xlink" x="0px" y="0px"
	 viewBox="0 0 110 110" style="enable-background:new 0 0 110 110;" xml:space="preserve">
<style type="text/css">
	.st0{fill:#0052A5;}
</style>
<g>
	<path class="st0" d="M54.8,104.5H16.2c-4.8,0-8.7-3.9-8.7-8.7V14.2c0-4.8,3.9-8.7,8.7-8.7h38.7c4.8,0,8.7,3.9,8.7,8.7v10.1
		c0,0.8-0.7,1.5-1.5,1.5s-1.5-0.7-1.5-1.5V14.2c0-3.1-2.5-5.7-5.7-5.7H16.2c-3.1,0-5.7,2.5-5.7,5.7v81.7c0,3.1,2.5,5.7,5.7,5.7h38.7
		c3.1,0,5.7-2.5,5.7-5.7V78.4c0-0.8,0.7-1.5,1.5-1.5s1.5,0.7,1.5,1.5v17.5C63.5,100.6,59.6,104.5,54.8,104.5z"/>
</g>
<g>
	<path class="st0" d="M54,79.5c-0.2,0-0.4,0-0.6-0.1c-0.6-0.2-0.9-0.8-0.9-1.4v-8.5H50c-4.1,0-7.5-3.4-7.5-7.5V37
		c0-4.1,3.4-7.5,7.5-7.5h42c4.1,0,7.5,3.4,7.5,7.5v25c0,4.1-3.4,7.5-7.5,7.5H64.6l-9.6,9.6C54.8,79.3,54.4,79.5,54,79.5z M50,32.5
		c-2.5,0-4.5,2-4.5,4.5v25c0,2.5,2,4.5,4.5,4.5h4c0.8,0,1.5,0.7,1.5,1.5v6.4l7.4-7.4c0.3-0.3,0.7-0.4,1.1-0.4h28
		c2.5,0,4.5-2,4.5-4.5V37c0-2.5-2-4.5-4.5-4.5H50z"/>
</g>
<g>
	<path class="st0" d="M61,19.5H10c-0.8,0-1.5-0.7-1.5-1.5s0.7-1.5,1.5-1.5h51c0.8,0,1.5,0.7,1.5,1.5S61.8,19.5,61,19.5z"/>
</g>
<g>
	<path class="st0" d="M61.5,94.5h-51C9.7,94.5,9,93.8,9,93s0.7-1.5,1.5-1.5h51c0.8,0,1.5,0.7,1.5,1.5S62.3,94.5,61.5,94.5z"/>
</g>
<g>
	<path class="st0" d="M38,14.5h-5c-0.8,0-1.5-0.7-1.5-1.5s0.7-1.5,1.5-1.5h5c0.8,0,1.5,0.7,1.5,1.5S38.8,14.5,38,14.5z"/>
</g>
<g>
	<path class="st0" d="M41,99.5H30c-0.8,0-1.5-0.7-1.5-1.5s0.7-1.5,1.5-1.5h11c0.8,0,1.5,0.7,1.5,1.5S41.8,99.5,41,99.5z"/>
</g>
<g>
	<path class="st0" d="M88,45.5H53c-0.8,0-1.5-0.7-1.5-1.5s0.7-1.5,1.5-1.5h35c0.8,0,1.5,0.7,1.5,1.5S88.8,45.5,88,45.5z"/>
</g>
<g>
	<path class="st0" d="M81,55.5H53c-0.8,0-1.5-0.7-1.5-1.5s0.7-1.5,1.5-1.5h28c0.8,0,1.5,0.7,1.5,1.5S81.8,55.5,81,55.5z"/>
</g>
</svg>
