<?xml version="1.0" encoding="utf-8"?>
<!-- Generator: Adobe Illustrator 24.0.1, SVG Export Plug-In . SVG Version: 6.00 Build 0)  -->
<svg version="1.1" id="Warstwa_1" xmlns="http://www.w3.org/2000/svg" xmlns:xlink="http://www.w3.org/1999/xlink" x="0px" y="0px"
	 viewBox="0 0 801 291" style="enable-background:new 0 0 801 291;" xml:space="preserve">
<style type="text/css">
	.st0{fill:#DB153D;}
	.st1{fill:#FFFFFF;}
	.st2{fill:#F2F2F2;}
	.st3{fill:url(#SVGID_1_);}
	.st4{fill:#BBBDBE;}
	.st5{fill:#BFBFBF;}
	.st6{fill:#C6C7C9;}
	.st7{fill:#D9D9D9;}
	.st8{fill:#E6E6E6;}
	.st9{fill:#A6A8AA;}
	.st10{fill:url(#SVGID_2_);}
	.st11{fill:#D9D9D9;stroke:#D9D9D9;stroke-width:2.803179e-02;}
	.st12{fill:url(#SVGID_3_);}
	.st13{fill:#FDC90A;}
	.st14{fill:#E1AA23;}
	.st15{fill:#1E1E1E;}
</style>
<g id="godlo_3_">
	<path class="st0" d="M21.5,218.7c0.3,6.8,2.8,12.6,5.7,17.2c5.7,9.1,14.4,16.7,26.5,19.4c6.1,1.4,14.6,0.9,22,0.9
		c7.8,0,15.5-0.1,22.9-0.1c7.7,0,14.4,0.8,19.6,3.4c4.8,2.4,8.7,5.8,10,11.5c0,0.1,0,0.4,0,0.5h1.2c0-0.2,0-0.5,0.1-0.6
		c1.4-5.9,5.7-9.5,10.9-11.8c5.5-2.3,12.2-3,19.8-3c10.8,0,22.9,0.1,34,0.1c3.8,0,7.2-0.4,10.3-1.1c11.9-2.9,20.5-10.4,26-19.5
		c2.9-4.8,5.1-10.3,5.5-17.3V12.5H21.4L21.5,218.7z"/>
	<path class="st1" d="M217.6,133.6c-5.7-2.8-10.7-6.4-16-9.4c-0.5-0.3-1-0.5-1.3-1c4.3,1.6,8.9,3.5,14.1,4.4
		c5.4,1,11.8,0.6,15.6-1.8c-4.4-6.6-9.9-12.1-18-15c3.9,0.5,7.9,0.2,11-0.8c3-1,5.5-3,5.5-6.7c-3.6,1.6-9.5,1.9-13.9,0.8
		c6-1.3,11.5-3.1,13.9-7.8c-3.8-2.7-8.2-4.7-13.8-5.6c3-1.5,7.7-3,9.5-6c1.1-1.8,0.4-3.9-0.4-5.4c-1,0.7-1.9,1.5-2.9,2.2
		c-1,0.7-2.2,1.3-3.3,1.9c-2.2,1.2-4.6,2.5-7.5,2.9c2.8-1.5,5-3.7,7-5.9c2-2.2,4.2-4.6,5.1-7.8c-3.2-1.5-8.9-1.7-13-0.8
		c2.4-2.6,6.5-8.3,3-12.5c-2.4,3.7-5.6,6.6-9.2,9.1c3.5-4.1,6.1-9.1,7-15.7c-5.4,0.3-10,1.4-13.5,3.7c0-0.1,0.1-0.1,0.1-0.1
		c2.6-3.2,5-6.9,5.2-12.2c-17.3,1.9-30.4,8.5-39.8,18.6c-4.4,4.8-9.2,10.6-11.5,17.7c-1.2,3.9-1.6,8.5,0.1,12.2
		c1.5,3.1,4.2,5.8,9,5.3c2.1,7.2-4.9,10.3-11.5,9.6c0.3-3.3-0.5-6.6-1.8-8.3c1.4-0.2,2.4-0.9,2.7-2.2c-2-0.4-3.5-1-4.2-2.5
		c-1.5-3.1,0.8-7.5,0.4-11.1c0.8,0.3,1.8,0,2.3-0.4c-1.7-1.5-1.7-4.7-1.5-7.9c0.5-6.6,2.7-16.1-0.8-20.8c0.6-0.4,1-1.3,0.7-2.4
		c2.3-0.1,1.8-3.9,0.4-4.7c-0.5,1.8-4.1,1.5-4.9,0.2c2.3-0.6,2.6-5.2,0.4-6.2c-0.6,1.5-1.5,2.6-3,3.2c0.9-3.7,1.7-7.3,3-10.6
		c1.2-3.4,2.9-6.3,4.4-9.1c-2.3,1.2-5.2,1.8-6.8,3.7c-1.4-1.8-4.1-0.4-4.7,1.1c0.2-1.8-0.7-2.7-2.3-2.7c1.3-2.1-1.1-3.7-2.7-2.6
		c-0.2-1.4-1.2-2.1-2-3c-0.7,1-1.6,1.7-1.5,3.4c-1.3-1.1-3.4,0-2.6,1.9c-2,0-2.4,2-2.5,3.7c-0.4-2.1-3.4-2.6-4.7-1.1
		c-0.9-2.5-4.7-2.2-6.3-3.9c2.9,5.3,5.1,11.5,6.9,17.9c-2.4,0.6-4,2-3.9,5.1c-3.6,0.2-6.3,1.5-6.6,4.9c-0.2,2.1,0.6,3.7,1.1,5.4
		c1.1-1.1,3.1-2.3,5.3-2.1c1.6,0.2,2.8,1.1,3.3,2.2c-2.9,0.5-5.4,2.8-8.7,2.7c-1.9,0-2.9-1.1-3.8-1.8c-0.4,1.4,0.1,2.7,0.7,3.3
		c3.3,3.3,10.6,0.3,14.6-0.4c-0.2,0.4-0.2,1.2,0.1,1.5c0.7,0.2,1-0.1,1.6-0.1c2.4,0,4,1.8,5.1,3.2c1.3,1.7,2.1,3.7,1.5,6.3
		c-1.1,4.3-4.5,7.1-7.8,8.8c-0.4,1.5,0.4,2.9,1.5,3.4c-1.1,1.7-2.4,3.4-4.1,5.1c-1.1,1.1-3.5,3.7-5.7,3.6c-1-0.1-1.3-0.8-1.9-1.4
		c-1.1,1.6-0.8,5.2,0.9,5.8c-1.9,2-2.6,5.2-2.9,8.9c-5.1-1-11.8-1.5-12-7.1c-0.1-1.2,0.2-2.1,0.4-3.2c3.7,0.3,6.3-2,7.9-4.4
		c1.5-2.3,2.2-5.2,2-8.8c-0.4-6.5-4.3-12.2-7.4-16.1c-3.6-4.5-7.2-8.3-11.7-11.8c-8.9-7-19.6-12.4-33.7-13.2
		c1.5,5.9,5,10.1,8.7,13.7c-4.8-2.2-10.6-5-17.7-3.7c0.7,4.4,3,7.5,5.3,10.4c2.4,2.9,5.1,5.5,7.8,7.9c-2.7-1.6-5.5-3.3-8.2-5.2
		c-2.9-1.9-6.4-4-8.1-7c-0.7,0.9-0.8,2.5-0.7,3.9c0.3,3.8,3.1,6.3,5.1,8c-2.5-0.5-5.4-0.4-8.1-0.1c-2.6,0.2-5.3,0.5-6.8,1.8
		c1.8,3.3,4.6,5.6,7.3,8c2.8,2.4,5.9,4.4,9.6,5.8c-3.8-0.4-7.1-1.7-10.1-3.2c-2.6-1.2-5.2-2.7-7.2-4.5c-0.2-0.2-0.5-0.6-0.8-0.6
		c-0.6,2.9,0.7,5.3,2,7.1c1.3,1.9,3.1,3.4,5.1,4.4c-4.8,0.8-9,2.2-12,4.9c2.2,2.7,5.1,4.7,8.2,6.4c3.1,1.7,6.7,3.2,10.9,3.7
		c-6.1,0.5-12.8,0-17.5-1.5c-0.2,8.2,9.3,7.8,17.3,7.9c-3.8,1.8-7.3,4-10.6,6.5c-3.2,2.4-6.3,5.1-7.8,9.2c7.5,3,17.8,0.2,24.5-1.3
		c-5.1,2.8-10.4,6.5-16,9.3c-2.3,1.1-5.3,2.8-8.3,2c1.4,2.7,3.5,5.1,7.6,4.8c3.4-0.2,6.2-1.6,8.9-2.9c2.8-1.3,5.4-2.7,7.7-4
		c-6.3,9.1-13.3,17.5-12.8,33.4c3.7-0.4,6.6-2.4,9.3-4.2c8.1-5.4,14.3-12.8,19.6-20.6c-3,6.1-5.7,12.8-8.9,18.8
		c-3.2,5.9-6.5,12-12.7,14.9c4.7,2,9.1-0.4,11.9-2.7c5.8-4.9,9.6-12.3,12.9-19.2c-1.2,5.9-2.3,13.3-2,20.5c0.2,3.8,0.2,7.6,1.9,10.2
		c5.3-3.9,9.1-9.4,12.3-15.3c3.2-5.9,6-12.5,8-19.6c-1.3,8-2.9,15.8-5.3,22.6c1,0.3,1.9,0.1,2.7-0.3c2.4-1.2,3.9-4.1,5.1-6.6
		c1.3-2.8,2.2-5.9,3-8.7c0.3,0.3,0.5,0.9,1,1.1c3.2-2.3,5.2-5.7,6.9-9.5c1.7-3.8,2.8-8.3,3.4-13.1c3.9,1.4,9,0.4,11.4-1.8
		c1.1,1.4,1.5,3.4,1.8,5.4c-2.2-2.1-6.4-2.9-9.5-1.1c-2.6,1.5-4.5,4.2-5.3,7.5c-0.5,1.9-0.5,3.7-1,5.3c-1.3,5-4.3,8.5-8.1,11.1
		c0.4,0.4,1.2,0.5,2.1,0.5c-0.8,1.5-1.9,3.1-3,4.2c-0.1,0.1-0.5,0.2-0.4,0.4c0.3,0.3,0.9,0.2,1.3,0.4c-1.3,2.1-3,3.8-5.3,4.9
		c0.5,0.6,1.4,0.7,2.2,1.1c-1.3,1.9-3.3,3.2-5.6,4.3c2.4,1.6,5.6,2.7,9.5,2.5c-1.3,2.9-3.8,4.6-6.5,6.1c0.5,0.5,1.3,0.7,2.3,0.7
		c-1.8,2.1-4,3.7-6.7,4.9c0.4,0.4,1.2,0.5,1.9,0.6c-1.4,2.2-3.5,3.8-6.5,4.5c0.3,0.9,1.8,1.1,3.1,1.3c-1.2,2-3.9,2.6-6.6,3.1
		c0.4,1,1.3,1.4,2.3,1.6c-3.4,3.9-9.6-0.2-15.2,0.4c-1.6-3.7-9.5-3.1-9.9,1.3c-1-0.4-1.9,0.2-1.8,1.5c-2,2-1.6,7.7,1.5,8.2
		c0-2.6,1.6-3.4,3-4.6c2.2,0.7,4.6-0.2,5.8-1.3c1.7,0.3,3.6,0.5,5,1.1c-1.3,0.1-2.1,0.5-3.2,1.1c-0.7,0.4-1.7,1.7-2.5,1.8
		c-0.8,0.1-1.8-0.4-2.6-0.4c-0.9,0-1.9,0.4-2.5,1.1c-0.6,0.5-1.6,1.8-1.8,2.4c-0.4,1-0.1,2.5,0.1,3.6c-0.6,0.6-0.3,1.6,0.3,2
		c0.2,2,1.7,3.2,3.2,4.1c1.3,0.8,2.9,1.3,4.6,1.3c-0.3-0.7-1-1.3-1.3-2.3c-0.3-1-0.1-2.2-0.5-3.3c1.6-0.7,2.9-2.1,3.2-4
		c1.9-0.5,4-1,5.6-1.7c0.4-0.2,0.9-0.7,1.3-0.6c0.1,0.5-0.4,0.7-0.6,0.8c-1.3,1-2.1,2.2-2.7,3.7c-3-0.3-4.8,1.9-4.5,4.5
		c0.1,1.3,1.1,2.1,1.6,3c-0.3,1.2,0.4,2,1.1,2.3c0.6,2.9,6.6,4.6,8.6,1.8c-1.3-0.6-5.2-3.8-2.1-4.9c1.1-1,1.4-3.6,0.6-5.2
		c2.6-2.2,4.9-4.7,7-7.2c1.6,0.5,4.2,0.1,5.6-0.1c0.1,0.7-0.5,1-0.6,1.7c-0.2,1.6,0.7,2.8,2,3.2c-0.1,0.9-0.1,2.1-0.6,3
		c-0.3,0.6-1,0.7-1.3,1.3c2.4,1.4,7,0.5,6.7-2.9c0.9-0.1,1.4-1,1.1-2c1.6-0.5,2.3-2.4,2.1-4.4c-0.3-2.5-2.4-4.2-5.1-4.2
		c-0.8,0-1.7,0.5-2.7,0.3c-1.2-0.2-1.1-2.1-0.6-3c0.5-0.9,1.5-1.8,2.3-2.7c2.5-2.9,4.2-5.3,6.8-8.4c2.6-3.1,5.4-6.5,8.3-9.4
		c0.1-0.1,1.2-1.2,1.3-1.2c0,0,0.5,0.6,0.7,0.8c1.9,2,4.2,3.6,7.8,3.5c-0.9-1.7-1.7-3.6-1.8-6.2c0.9,0.5,1.6,1.3,2.9,1.3
		c-2.3-9.8,2.4-17.7,6.8-22.2c-0.2,10.4-2.8,18.8-6.5,25.4c3,0.4,5.2-1.5,6.4-3.2c0.2,3.3-0.9,6.3-2.4,8.9c-1.5,2.4-3.5,4.6-6.5,4.9
		c-1.6,0.1-2.5-0.9-3.4-1.3c-1.5,2.9-0.4,6.6,1.8,8c2.6,1.7,6.3,0.6,8.5-0.8c-0.7,2.5-2,5-4.8,6.8c-2.2,1.5-6.6,2.8-8.9,1.1
		c-1.8-1.3-1.4-4.7-0.4-6.6c-5-0.3-8.5,2.7-8.8,7.3c-0.3,4,1.5,6.5,3.9,8.1c-2.2,1.8-4.8,3.8-4.8,7.6c0,3.7,2.3,6,4.9,7.4
		c2.7,1.5,6.4,2.2,10.1,1.3c6.6-1.5,10.5-6.2,13.6-11c-1.2,4-1.4,9.5-0.4,13.7c1,4.2,2.9,7.5,5.1,10.3c1.8-3,3.7-6.4,4.7-10.4
		c1-3.9,1.2-9.5-0.1-13.4c1.9,2.8,3.8,5.1,6.5,7.2c2.5,2,5.6,3.9,9.9,3.8c4.1-0.1,7.3-2,9.1-4.5c1-1.3,1.8-3.1,1.8-5.1
		c-0.1-3.9-3-6.3-5.8-7.7c3.2-1.4,5.3-5.9,4.4-10.1c-0.7-3.3-3-5.3-6.5-5.6c0.3,0.6,0.5,1.2,0.6,2c0.3,3.6-2.7,5.2-5.7,5.4
		c-6,0.4-9.5-4.2-10.6-8.3c2.6,1.7,6.6,1.2,8.6-0.8c1.6-1.6,2.3-5.1,0.6-7.3c-1.3,1.4-3.7,2.6-5.9,1.5c-3.3-1.5-4.7-6.5-5.3-10.6
		c1.3,1.2,3.8,1.8,6.3,1.4c-1.1-1.6-2.3-3.2-3.2-5.1c-2.8-5.8-4-13.1-4.2-21.3c1.9,2.9,3.6,6,5,9.3c1.4,3.3,2.7,7.1,2.5,11.7
		c1.8-0.5,2.5-2.2,3.4-3.7c0.2,1.9,0.1,3.6-0.3,5.1c-0.4,1.5-1.3,2.4-2,3.5c4.2,1.3,7.3-2.1,8.9-4.6c5.7,7.2,11.2,14.8,17.4,21.5
		c0.8,0.8,2.5,2,2.4,3.2c-0.1,0.9-1,1.5-2,1.4c-0.6,0-1.2-0.3-1.7-0.4c-5.2-1-7.3,4.8-3.7,7.2c-0.2,0.6-0.2,1.2-0.1,1.8
		c0.4,3.7,6.6,5.2,8.6,2.5c-1.6-0.3-2.3-1.5-2.8-2.9c0.3-0.5,0.4-1.4,0.4-2c0.9,0,1.3-0.9,1.8-1.1c2.1,0.3,3.8-0.3,5-1.2
		c2.1,2,4,4.1,6.1,6.1c-0.2,0.4,0.2,0.8,0.3,1.1c-0.4,2.7,0.8,4.3,2.3,5.3c-0.3,1.1,0.5,1.6,1.1,2c-0.7,1-2,1.6-2.9,2.5
		c2.5,1.5,6.3,0.3,7.2-1.7c0.1-0.3,0.1-0.7,0.2-0.9c0.1-0.2,0.5-0.3,0.6-0.6c0.1-0.2,0.1-0.5,0.1-0.8c0.2-0.6,0.4-0.9,0.1-1.5
		c2.2-3,0.2-7.4-3.4-7.3c-1.6-1.9-4-3.4-5.6-5.1c1.8,0.6,3.8,1.3,5.8,2c1.6,0.5,4.6,1.2,5.5,2.4c0.2,0.3,0.3,0.9,0.4,1.3
		c0.3,0.8,0.8,1.2,1.9,1.5c0.1,1.9-0.1,3.4-0.6,4.9c3.4,0.2,5-2.3,5.5-5c0.3-0.3,0.6-0.5,0.6-1c0-0.5-0.4-1.1-0.4-1.2
		c0-0.1,0.3-0.4,0.4-0.5c0.7-1.2,0.6-2.8-0.1-3.9c-1.4-2.3-4.9-3.3-8-1.5c-1.5-1.3-3.6-2.1-5.5-3c1.4-1,3.6-1.3,5.8-1.5
		c1.2,0.8,3.7,1.4,4.9,0.2c0.2,1,1.6,1.3,2.6,0.8c1.2,0.6,1.6,2,2.3,3c2.4-1.5,2.1-7.6-0.8-8.2c-0.2-0.7-0.7-1.2-1.7-1.1
		c-0.8-3.1-6.8-2.8-7.6,0.1c-3.1,0.3-6.4,0.9-9.1,1.7c-0.9,0.3-1.9,0.8-2.7,0.9c-1.8,0.2-3.1-1.1-4-2.1c0.9-0.3,1.6-0.7,1.9-1.8
		c-2.5-0.1-4.4-0.8-5.5-2.3c0.1-0.3,0.4-0.8,0.6-1.2c-2.5-0.8-4-2.7-5.2-4.9c0.4-0.3,0.9-0.6,1-1.3c-2.4-0.7-4.4-1.8-5.5-3.7
		c0.6-0.4,1.2-0.7,1.4-1.4c-1.8-0.8-3.4-2.1-4.7-3.4c-1.4-1.4-2.8-2.8-3.6-4.5c3.5,0.7,8,0.2,10.5-1.1c0.4-0.2,0.8-0.3,0.8-0.6
		c-3.3-0.9-5.9-2.4-7.4-5.1c0.7,0,1.1-0.2,1.7-0.4c-1.9-1.4-3.9-2.7-4.9-5.1c0.9,0,1.5-0.3,2-0.8c-1.8-0.7-3-2.1-3.8-3.7
		c0.9,0.2,2,0.1,2.5-0.3c-4.4-2-5.9-7.1-7.7-12.4c-1.5-4.3-3.2-11.3-9.2-10.9c-2.5,0.2-4.2,1.3-6.1,2c0.7-1.7,1.7-3.2,2.7-4.6
		c2.6,1.5,7.6,1.5,10,0c1.1,8.6,3.3,16,8.7,20.2c1-0.4,1.9-1.3,2.7-1.8c0.5,2.8,1.1,6.1,2.2,9c1.3,3.6,3,7.1,7.7,7
		c-2.5-5.4-3.2-12.8-3.1-20.5c1,7.1,2.4,14.1,4.6,20.2c2.1,6.1,4.7,11.8,9.5,15.3c1.7-3.3,2.5-7.7,2.9-12.4
		c0.4-4.7,0.5-9.9-0.1-14.7c3,4.8,6.3,10.7,10.4,14.8c1.3,1.3,3.2,2.9,5.3,3c2.7,0.1,4-1.7,6.2-2.3c-9-4.9-11.9-15.9-16.8-24.8
		c2.9,4.2,6.1,8.2,9.9,11.7c3.7,3.4,7.9,6.6,13.4,8.1c0.7-14.2-4.4-23.7-9.6-32c3.7,1.9,7.9,3.9,12.7,4.9c5.3,1.1,10.8,0,11.6-4.9
		C224.9,136.8,220.4,135,217.6,133.6z M119.6,217.8c-0.9,2-3,4.7-4.6,6.3c-2,1.9-4.5,3.6-7.3,3.9c-4,0.4-6.2-2.2-5.2-6.3
		C109.1,223.9,116.1,221.1,119.6,217.8C119.6,217.8,119.6,217.7,119.6,217.8C119.6,217.7,119.6,217.7,119.6,217.8
		C119.6,217.8,119.6,217.8,119.6,217.8z M119.6,217.7C119.6,217.7,119.6,217.6,119.6,217.7C119.6,217.7,119.6,217.7,119.6,217.7z
		 M119.7,217.6C119.7,217.6,119.7,217.6,119.7,217.6C119.7,217.6,119.7,217.6,119.7,217.6z M136.7,216.3c3.6,3.4,10.6,6.5,17.2,4.6
		c0.5,3.8-1.6,6.2-5.6,5.9C142.5,226.3,138.4,220.4,136.7,216.3C136.6,216.2,136.7,216.2,136.7,216.3z"/>
	<path class="st2" d="M129.6,48.6c2,0.7,3.7,1.4,5.2,1.1c0,0-1.6,0.5-9.7-3.7c0,0-9.4-4.7-8.6,2l0.4,0.1c0,0,0.1-4.3,4.8-2.5
		C124.3,46.7,127.1,47.7,129.6,48.6z"/>
	<linearGradient id="SVGID_1_" gradientUnits="userSpaceOnUse" x1="86.2599" y1="117.9372" x2="110.1602" y2="117.9372">
		<stop  offset="0" style="stop-color:#FFFFFF"/>
		<stop  offset="0.9945" style="stop-color:#D9D9D9"/>
	</linearGradient>
	<path class="st3" d="M86.3,118.6c8.8,4.4,23.9,5,23.9,5c-1.3-2.5-2.5-11.3-2.5-11.3s0,4.8,0.8,7.1c0,0-1.3,0.2-3.8-0.2
		c-2.5-0.4-11.2-1.7-17.2-5"/>
	<path class="st4" d="M114.8,47.8l1.6,0.2c0,0-0.9-4.1,3.4-3.7c4.3,0.4,8.1,3.3,9.8,3.8c0,0-6.3-4.1-9.9-4.3
		C116,43.6,115.1,45.7,114.8,47.8z"/>
	<path class="st4" d="M130,45.9c0,0,6.3,1.8,8.8,0.3c0,0,1.2-0.6,1.9-1.8c0.7-1.2,1.3-1.4,1.3-1.4s1.7,3.4-2.9,4.4
		C134.9,48.4,130,45.9,130,45.9z"/>
	<path class="st4" d="M139.8,48.5c0,0,2.6,1,1.4,2.2l0,0.3c0,0,3,1.9,5.2,0c0,0,1.2-1.1,0.1-2.5c0,0-1.4,1-2.9,1
		C142.1,49.5,140.4,48.4,139.8,48.5"/>
	<path class="st5" d="M141.6,51.9c0,0,3.1,4.5,1.6,5.4c0,0-0.4,0.4-1.3-0.1c0,0,4.2,8.2,1.1,15.8c-3.1,7.6-10.1,15.6-4.8,21.9
		c0,0,4.1,3.7,3.1,8.5c0,0,2.8-2.4-0.3-9.2c0,0-1.4-3.5,0-8.7c0,0,1.6-6.7,1.6-7.5c0,0,2,3.5,3.2,4.1c0,0-0.7-3.8-0.3-6.8
		c0.3-3.1,1.9-14,0.2-18.2C144,52.9,141.6,51.9,141.6,51.9z"/>
	<path class="st5" d="M142.8,80.2c0,0,1.4,2,1.9,2.2c0,0-1.2,10.3-1,11.2c0.2,0.9,0.9,3,3.9,3.8c0,0-4,1.7-5.6-2.2
		C140.4,91.4,141.7,83.2,142.8,80.2z"/>
	<path class="st4" d="M143.3,98.1c0,0-0.1,2.4-0.3,3.2c0,0,1.8,2,2.4,6c0.6,4.1,1.4,5.4,1.4,5.4s0-8.5-2.8-12.9l0-0.4
		c0,0,1.7,0.1,2-0.2C145.9,99.2,143.9,98.8,143.3,98.1z"/>
	<path class="st4" d="M117.2,48.3l1.1,0.3c0,0,0.1-1.4,1-1.7c0.8-0.3,1.3,0,1,0.3c-0.3,0.3-0.6,0.8-0.6,0.8l1.6,1.1
		c0,0-0.1-1.5,0.4-1.8c0,0,0.2-0.4,1.8,0.1c1.6,0.5,8.2,3.1,8.2,3.1s-0.4,2.7-4.4,2.3c0,0,3.7,2.7,7.7-1.8c0,0,4.2,0.2,4.7-1.1
		c0,0-4.1,0.2-6.4-0.3c-2.2-0.4-7.7-2.3-11.3-3.7C118.4,44.7,117.3,46.8,117.2,48.3z"/>
	<path class="st4" d="M122.3,47.2c0,0-1,2.8,1.8,4c2.8,1.2,3.6,0.9,3.6,0.9l-1.7-0.9c0,0-0.5,0.3-1.1-0.2c-0.7-0.5-1.3-1.4-0.7-3.3
		C124.2,47.8,123,47.4,122.3,47.2z"/>
	<path class="st6" d="M106.1,61.8c0,0,2.7,0.7,6.3-0.2c3.6-0.9,5.6-2.3,8-2.7c2.3-0.4,4.8-0.6,7.9,1.4c0,0,0.6,0.4,0.5,0.7
		c-0.1,0.3,0,0.5-1,0.3c-0.9-0.2-1.2-0.9-7.1-0.7c0,0-2.2,0.4-3.5,0.8C116,61.8,109.9,63.8,106.1,61.8z"/>
	<path class="st7" d="M124.7,81c0,0,5.8-2.3,7.4-7.2c0,0,0.4-0.5,0.7-0.2c0.3,0.3,0.8,0.6,1.1,0.5C133.9,74.1,131.6,80.1,124.7,81z"
		/>
	<path class="st7" d="M121.5,82.6c0,0,4.3,1.9,8.9-2.2C130.4,80.5,123.1,88.9,121.5,82.6z"/>
	<path class="st7" d="M125.1,86.5c0,0,3.4-1.2,4.4-2.6c0,0-4.4,9.8-12.4,12.8c0,0-5.8,2.2-7.1-2.4c0,0,2.2,2.3,6.7,0.4
		C121.2,92.7,125.1,86.5,125.1,86.5z"/>
	<path class="st4" d="M111.6,98.5c0,0,3.8,0.9,6.6-0.5c0,0,2.5-1.2,3.7-2.4c1.3-1.2,4.4-4.7,4.7-5.3l-1.8,4.4c0,0-4.4,3.3-7.2,4
		c0,0-2.9,1.4-4.2,4.1c0,0-1.9,3.4-2.5,3.9c0,0,1.1-2.5,1.5-3.6c0,0,1.2-3,2.4-3.9C114.9,99.3,111.8,98.9,111.6,98.5z"/>
	<path class="st4" d="M124.6,97.7v2.7c0,0-1.7,0.4-1.8,4.3c-0.1,3.8,0.7,5.1-0.2,7.3c0,0,0-2.4-0.4-4.2c-0.4-1.8-1.1-3.8-0.4-6.1
		C122.3,99.3,124.6,97.7,124.6,97.7z"/>
	<path class="st4" d="M117.4,100.8c0,0-1.1,3.6-1,5.7c0,0,0.3,1.8,1,2.4c0.7,0.6,3.9,3.2,4.4,4.9c0,0-2.2-3-4.7-4.5
		c0,0-0.9-0.8-1-1.4c0,0-0.7,1.7-2.8,2.5c-2.1,0.8-3.8,2.1-3.8,2.1s-0.3-0.7-0.3-1.2c0,0-0.7-0.4-1.5,0.5l-0.4-0.3
		c0,0,0.7-1,2.5-1.2c1.8-0.3,4.5-0.6,5.5-2.1c0,0,0.8-1.3,0.9-2.5C116.2,105.6,116.5,102.4,117.4,100.8z"/>
	<path class="st5" d="M139.8,67.7c0,0,0.4-0.2,0.5-0.6c0.1-0.4,0.3-1,0.4-1c0.1,0,0.1,5.4-0.9,8c-1,2.7-2.1,4.7-4,7.3
		c-1.9,2.6-4.7,8.8-5,9.5c-0.3,0.7-2.6,7.5-3.2,8.4c0,0,1.8-7.3,2.7-9.6c0.8-2.3,4.7-9.1,5.1-9.8c0.4-0.7,3.3-6.4,3.6-7.3
		C139.4,71.9,140.1,68.3,139.8,67.7z"/>
	<path class="st5" d="M133.1,91.5c0,0-0.1,5.2,0.8,6.4c0,0-2.6,3.3-3.3,4c-0.7,0.7-3.2,2.7-5.5,1.3c0,0,1.7-1,2.5-2.2
		C128.3,99.7,131.1,91.9,133.1,91.5z"/>
	<path class="st7" d="M135.7,86.4c0,0-1.7,5.3-0.5,7.5c1.1,2.2,3.3,3.6,3.4,3.7c0.1,0.1,1.8,2,1.7,2.3c-0.1,0.3-3.5-1.2-4.7-2.5
		C134.5,96,131.5,92.5,135.7,86.4z"/>
	<path class="st7" d="M137.5,56.6c0,0,5.5,3.2,5.7,9.4c0.2,6.2-2.5,10.7-3.6,12.8c-1.1,2.1-4.9,6.7-4.9,6.7s6.5-10.4,7-14.9
		C142.1,66.2,139.7,59.7,137.5,56.6z"/>
	<path class="st4" d="M134.9,99.4c0,0,2.9,1.6,3.1,1.7c0.3,0.1,1.7,1,1.9,1.3c0.2,0.3,0.5,0.8,0.5,0.8l-0.4-1l-0.8-0.8l-4-2.3
		c0,0-1.1-0.9-1.2-0.9c-0.2,0-1.9,3-1.2,4.9c0.7,1.9,2.2,3.9,2.2,6.3c0,2.3-0.3,3.6-0.3,3.6s1.4-3.3,0.8-5.6
		C135,105.2,133.2,101.8,134.9,99.4z"/>
	<path class="st4" d="M140.6,103.9c0,0,0.7,2.6,1.1,3.1c0,0-0.7,3-3.8,5.1c-3.1,2.1-3.6,3.1-3.6,3.1s-0.4-1.1,2.7-3.4
		C140.2,109.5,140.8,104.6,140.6,103.9z"/>
	<path class="st7" d="M118.4,49.4c0,0,3.2,1.3,5.2,4.9c0,0-1.3-0.3-1.9-0.2C121.7,54.1,120.5,50.9,118.4,49.4z"/>
	<path class="st4" d="M127.4,104l0.3,0c0,0,0.2,2.5,1.6,3.5c1.4,1,4.8,4.3,4.8,6.4c0,0-0.5-2-2.3-3.4c-1.8-1.4-3-2.6-3-2.6
		s-1.1,2.7-3.1,3.9c-1.9,1.2-3.3,2.6-3.3,2.9c0,0,0.2-1.3,2.6-3.1C127.2,109.9,127.9,105.3,127.4,104z"/>
	<path class="st8" d="M133.4,56c0,0,5,3.5,5.4,7.8c0.3,4.3-0.1,6.4-1.5,10c-1.4,3.6-6.7,13.7-6.7,13.7s-4.1,8.2-4.8,12.4
		c0,0,0,0.1,0,0.1c-0.6,4.2-0.5-5.7,4.9-15c5.5-9.3,6.9-14,6.3-17.6C136.6,63.9,136,60.5,133.4,56z"/>
	<path class="st4" d="M112.9,128.2c0,0-2.2-3.5-2.2-3.8c0-0.3,0.4-1,0.8-1.3c0.4-0.3,0,1.1,0.8,1.2c0,0,0.2-1.1,0.8-1.8
		c0.6-0.7,4.3-3.5,3.7-5.8l-1.4-1.1c0,0,0.4,2.9-1.7,4.7c-2.1,1.8-3.6,3.1-3.5,3.7C110.5,124.5,111.4,126.4,112.9,128.2z"/>
	<path class="st4" d="M117.6,117.1c0,0,5.9,2.8,10.7-1.5l1.2,1.1C129.4,116.6,122.9,120.6,117.6,117.1z"/>
	<path class="st4" d="M129.6,116.7c0,0,6,2.7,9.9-1.3l0.5,1.4c0,0-5.6,3.1-10.6,0.1L129.6,116.7z"/>
	<path class="st4" d="M142,108.5c0,0,3.8,4.8,2.8,7.4c-1,2.6-2.5,1.4-3.3,0.3c-0.8-1.1-1.2-3.2-0.5-6.1c0,0-2.2,3.3,0.8,7.2
		c3,3.9,2.4,5.1,2.4,5.1s2.6-5.2,2-8C145.7,111.4,142,108.5,142,108.5z"/>
	<path class="st4" d="M115.6,122.4c0,0,4,0.7,6.5-2.2l1.1,1C123.1,121.2,119,123.6,115.6,122.4z"/>
	<path class="st4" d="M123.4,121.4c0,0,5.6,3,10.7-0.4l1.1,0.7c0,0-6,3.5-12-0.2L123.4,121.4z"/>
	<path class="st4" d="M135.4,121.8c0,0,4.2,1.6,7.6-1.2c0,0,0.6,0.7,0.6,1.1c0,0-3.6,2.1-8.4,0.3L135.4,121.8z"/>
	<path class="st4" d="M116.4,125.4c0,0-0.4,1.4-2.4,2.5c0,0-0.8,0.8-0.5,1.1c0.2,0.4,1,1.4,1,1.4s-0.1-0.8,0.7-1.9
		C115.8,127.6,117.1,126.9,116.4,125.4z"/>
	<path class="st4" d="M128.4,125.5c0,0-3.7,4.4-11.8,0l0.1,0.3c0,0,2.3,1.8,7.7,2.3c0,0,3.7-0.1,5.2-1.9
		C129.6,126.2,128.6,125.9,128.4,125.5z"/>
	<path class="st4" d="M140,124.3c0,0,0.3,0.8,0.5,1c0,0-5.3,3.3-11,1.1l0.1-0.2C129.7,126.2,135.2,128.3,140,124.3z"/>
	<path class="st4" d="M143.7,121.9c0,0,0.5,1.7,0.2,3.7c-0.3,2-0.3,2.4-0.3,2.4s-2.7-1.2-3-2.5c0,0,0.4-0.9,1.2-1.2
		c0.8-0.3,1.8-2.2,1.8-2.5C143.6,121.6,143.7,121.9,143.7,121.9z"/>
	<path class="st4" d="M140.6,127c0,0,1.8,3,5,3.1c3.3,0,5.7-3.2,5.7-3.2l0.4,2.6c0,0-4.2,3.8-9.5,1.5c0,0-0.5,2.7-0.4,3.2
		c0,0-3.6-0.9-4.4-3.4c0,0,0.8-0.1,1.2-0.7C139,129.4,139.4,127.2,140.6,127z"/>
	<path class="st4" d="M139.9,134.2c0,0-1.9-1.4-2.2-1.7c-0.3-0.4-1.5,1.2-1.2,2.1c0.3,0.9,0.5,2.1,1.5,2.8L139.9,134.2z"/>
	<path class="st4" d="M135.9,129.6l0.7,1.4c0,0-8.5,4.9-16.4,0.1v-0.3c0,0,3.7,2.4,7.9,1.9C132.2,132.3,135.9,129.6,135.9,129.6z"/>
	<path class="st4" d="M119.4,130l0.7,0.7c0,0-1.1,2.9-2.9,3.7l-1-1.3C116.2,133.2,118.7,132,119.4,130z"/>
	<path class="st4" d="M118.3,137.9c0,0,1.6-1.6,1.9-2.3c0,0,0.8,0.8,1.1,0.9c0,0,0,0,0.1,0c0.3,0-1,0.5-1.3,1.1
		c-0.3,0.6-1.2,1.7-1.4,1.7L118.3,137.9z"/>
	<path class="st4" d="M121.6,136.7c0,0,1.4,1,4,0.3c2.7-0.6,3.2-1.6,3.2-1.6l0.9,0.8C129.7,136.3,125.5,139.1,121.6,136.7z"/>
	<path class="st4" d="M136.2,136.2l0.8,1c0,0-2.7,1-5.9-0.5C131.1,136.7,134.1,137.6,136.2,136.2z"/>
	<path class="st4" d="M134.3,139.3l1,1.1c0,0-1.6,4.3-1.9,7.7c-0.3,3.3-2.2,14-2.2,14s0.6-9,0.2-11.8c-0.4-2.8-0.2-5.5-0.2-6.5
		c0-1-0.5-1.6-1.3-1.9c-0.8-0.2-1.8-0.1-2.3-0.7C127.6,141.2,131.5,141.5,134.3,139.3z"/>
	<path class="st4" d="M136.2,140.9l0.1,0.2c0,0-1.5,5-1.7,9.4c-0.2,4.4-0.7,8.3-0.7,8.3s-0.6,8.7-2.4,13.3c0,0-1.2,2.8-2.9,4.7
		l-0.1-3.5c0,0,2.9-1.1,4.3-9.6c0,0,1.4-11.8,1.5-12.5C134.3,150.6,135,142.8,136.2,140.9z"/>
	<path class="st7" d="M122.5,139.7c0,0,1.4,1.2,2.3,1.2c0,0-1.5,0.2-1.4,0.7c0,0,1.2,4.1,1.2,9.4c0,5.3,0.5,10.6,0.5,11.2
		c0,0.7,1,5.5,1.5,6c0.5,0.5-1.2,0.4-2.1-6.5c-0.9-6.9-0.5-10.1-1-12.6c-0.5-2.5-1.2-6.8-2.5-8.3L122.5,139.7z"/>
	<path class="st4" d="M119.1,142.4c0,0,2.5,13.9,2.6,18.6c0,0-5,5.7-6.3,8.8c-1.3,3.1-2.3,9.3-1.7,12.9c0,0-4.1-0.9-4.4-7.6
		c0,0-0.2-3,0.4-5.4c0,0,3,0.8,4.9-1.7c1.9-2.5,3.4-4.4,4.6-7.1c1.2-2.7,1.2-6.7,1.1-7.7C120.2,152.3,119.1,142.4,119.1,142.4z"/>
	<path class="st4" d="M122.8,161.1c0,0,0.9,9.2,3.7,12.4c0,0-1.2,4.1-2.2,5.6c0,0,0.3-1.5-0.5-1.6c-0.8-0.1-5.3,8.1-7.7,9.7
		c0,0,5.1-6.5,5.8-9.1c0.7-2.6,1.3-5,1.2-8.5C123.1,166.2,122.8,161.1,122.8,161.1z"/>
	<path class="st4" d="M130.1,175.4c0,0-1.2,15-1.1,18.7l-0.4-16.9C128.6,177.2,130,175.6,130.1,175.4z"/>
	<path class="st4" d="M132,180.5c0,0,2.2,5.1,3.2,5.8l-0.2,0.1c0,0-0.7-0.8-0.9,0c-0.2,0.8-1.8,11.2-4.9,17l-0.1-3.3
		c0,0-2.1-1.9-3-7c0,0,1.9,5.5,2.9,6.3c0,0,2.7-5.7,3.3-9.5C132.7,186.2,132.5,181.9,132,180.5z"/>
	<path class="st4" d="M131.9,197.5l1.1,1.5c0,0,2.2,9.2,1.7,15.3c-0.6,6.1-1,10.7-5.4,16v-2.7c0,0-4.3-7.7-3.8-17
		c0,0,1,11.7,3.9,16.3c0,0,2.8-3.3,3.6-8.6c0.7-5.3,0.6-14.3-1.4-20.1L131.9,197.5z"/>
	<path class="st4" d="M131.9,197.5l1.1,1.5c0,0,2.2,9.2,1.7,15.3c-0.6,6.1-1,10.7-5.4,16v-2.7c0,0-4.3-7.7-3.8-17
		c0,0,1,11.7,3.9,16.3c0,0,2.8-3.3,3.6-8.6c0.7-5.3,0.6-14.3-1.4-20.1L131.9,197.5z"/>
	<path class="st7" d="M127.7,201.6l1.3,2.2l1-1.7l-0.7,20.3l-0.8-10.6C128.5,211.8,127.8,203,127.7,201.6z"/>
	<path class="st7" d="M127.7,229.2c0,0,0.8,1.4,1.4,1.5c0.5,0.1,1.6-1.9,1.6-1.9l-1.7,13.3L127.7,229.2z"/>
	<path class="st7" d="M134.1,161.3c0,0-0.6,7-1.4,9.2c0,0,1.1,15.9,7.8,16.2l0.1,0c0,0-2.3-2.6-4.6-9.7
		C133.9,169.8,134.1,161.3,134.1,161.3z"/>
	<path class="st7" d="M132.8,195c0,0,0.3,2.7,1.3,3.8c1,1.1,3.2,3.2,4.5,3.4c0,0-1.9-0.1-4-2.5c-2-2.4-2.4-3.6-2.4-3.6L132.8,195z"
		/>
	<path class="st7" d="M134.9,187.9c0,0,1,4.9,2.3,6.7c1.3,1.8,3.7,5,6.6,5.1c0,0-4.5,2-8.6-4.7l-1.5-2.3
		C133.7,192.7,134.4,187.5,134.9,187.9z"/>
	<path class="st7" d="M124,180.8c0,0,0.1,7.8,0.4,9.3c0.3,1.6,1.2,5.6,1.4,6.3c0,0-2.2,3.7-5.5,3.7c0,0,4.3-2.5,4.4-5.8V193
		l-1.4,2.7c0,0-2.3,4.8-6.8,4.7c0,0,4.2-0.6,5.8-4.1c0,0,1.8-4.3,1.9-6l-0.4-4.3c0,0-0.7,8.4-5.2,10.2c0,0,3.1-3,3.6-6.6
		C122.7,185.9,124,180.8,124,180.8z"/>
	<path class="st4" d="M126.1,197.2l0.4,1.1c0,0-3.4,4.3-6.9,5.4c-3.4,1.1-8.5,1.5-9.7-4.6c0,0,1.8,6.1,8.2,4.2
		C118.2,203.3,123.5,201.3,126.1,197.2z"/>
	<path class="st7" d="M125.5,202.3c0,0-1.5,5.2-1.7,8c0,0-2.3,3.5-3.7,4.3c0,0,2.8-2.8,2.3-4c0,0-0.5,0-1.6,1.5
		c-1.2,1.5-7,6-10.8,5.2c0,0,5.4-0.1,9.7-5.6C124,206.2,125.5,202.3,125.5,202.3z"/>
	<path class="st7" d="M104.4,206c0,0-4,2.7-1.7,8.4c0,0-2.6-1.1-1.1-5.5c0,0,0.3-1.4-1.2,0.1c-1.5,1.4-3.2,6.7,2.8,11.1
		c0,0-4.2-1.4-4.8-5.7C97.7,210.1,100.6,206.4,104.4,206z"/>
	<path class="st4" d="M123.7,210.7c0,0-0.1,2.4-0.1,2.7c0,0.3-5.7,5.9-10.3,7.1c-4.5,1.2-7.6,0.3-7.6,0.3s7.3,0.8,11.7-3.1
		C121.9,213.8,123.7,210.7,123.7,210.7z"/>
	<path class="st7" d="M123.8,214.9c0,0,0.6,5.2,0.8,5.8c0,0-3.7,7.5-8,10.5c0,0,6.6-6.8,7.1-10.3c0,0-6.1,10.9-14.6,11.3
		c0,0,8.7-1.8,12.3-9.5C121.3,222.7,123.5,218.2,123.8,214.9z"/>
	<path class="st7" d="M101.3,221.6c0,0-3.8,8.7,5.4,10.6c0,0-2.4,0.5-4.4-0.8c-2-1.3-3.3,1-0.8,2.7c0,0-4.4-1.6-4.2-6.3
		C97.4,223.2,101.3,221.6,101.3,221.6z"/>
	<path class="st4" d="M124.7,221.2l0.7,2.2c0,0-4.3,8-10,11.5c-5.7,3.5-11.8,1.9-11.8,1.9s5.8,0.7,4-0.4c0,0-1.4-0.5-1.8-0.5
		c-0.4,0,3.1-0.1,3.9-0.4c0.8-0.3,5-1.1,7.9-3.9C120.6,228.8,124.3,223.1,124.7,221.2z"/>
	<path class="st7" d="M133.3,199.4c0,0,1.4,2.6,3.6,3.9c0,0-0.5,5.9,5.1,10.1c5.6,4.2,10.3,2.1,10.3,2.1s-5.7,3.2-11.6-1.9
		C134.9,208.5,133.5,201.7,133.3,199.4z"/>
	<path class="st7" d="M154.5,205.3c0,0,9.3,6.2-2,12.9C152.4,218.1,161.6,213.5,154.5,205.3z"/>
	<path class="st4" d="M157.6,207.1c0,0,4.6,7.1-3,11.8c0,0-2.1,1.6-7.3,1.1c0,0,4.8,2.1,8.8-1.2
		C160.1,215.4,160.2,210.6,157.6,207.1z"/>
	<path class="st4" d="M134.8,210.5c0,0,2.7,5.5,8.2,7.3c0,0,3.7,1.2,5.9,1.2c0,0-5.8,0.5-9.9-2.9c0,0-3.6-3.2-4.1-4.5L134.8,210.5z"
		/>
	<path class="st7" d="M134.7,216.5c0,0,1.7,7.6,10.4,14.3c0,0-7.4-4.1-10.5-12.7L134.7,216.5z"/>
	<path class="st4" d="M155.8,221.8c0,0,2.9,5-0.3,8.3c-3.2,3.3-7,2.2-7,2.2s5.6,1.3,8.2-2.2C159.2,226.5,157.1,222.8,155.8,221.8z"
		/>
	<path class="st4" d="M159.1,224.3c0,0,2.9,7.6-5.3,10.7c0,0-3.8,1.6-8.5,0l-2.2-0.3c0,0,3.5,2.9,9.7,1.7
		C159,235.1,162.2,228.2,159.1,224.3z"/>
	<path class="st4" d="M96.7,162.9c0,0,8.4-0.9,10.4-6c0,0,5.8,0.5,11.7-8c0,0-4.2,8.2-12.3,10.2c0,0-5.7,5.4-10.8,5.4L96.7,162.9z"
		/>
	<path class="st4" d="M94.6,167.9c0,0,6,1,12.2-5.8c0,0,4.8,0.5,9.6-4.1c0,0-3.5,5.3-10.4,5.7c0,0-6.1,6.1-12.4,5.7L94.6,167.9z"/>
	<path class="st4" d="M106.2,167.7c0,0,5.5,0.3,9-3.6c0,0-3.9,5.4-9.5,5c0,0-4.5,7.1-15.3,6.2l1.2-1.4
		C91.5,173.9,100.5,176.2,106.2,167.7z"/>
	<path class="st7" d="M105.6,172.3c0,0,0.6,2.4,3.9-2.2c0,0-4.6,8.5,1.6,12.9c0,0-4.8,0.8-1.1,4.2
		C109.9,187.3,101.3,184,105.6,172.3z"/>
	<path class="st4" d="M104.4,174.4c0,0-4.4,5.4-11.7,4.5c0,0,3.3,0.8,0,1.1C92.7,180,101.1,181.5,104.4,174.4z"/>
	<path class="st7" d="M97.8,181.7l0.3,3.8l-1.7,0.7C96.4,186.2,97.9,183.7,97.8,181.7z"/>
	<path class="st4" d="M103.3,176.7c0,0-0.5,5,1.3,7.1l-4.8,2.1l-1.1-0.4c0,0,3.8-5.2,4.3-8.1L103.3,176.7z"/>
	<path class="st7" d="M100.5,186.1l-1.2-0.3c0,0-7.3,9.3-9.4,11.4c-2.1,2.1-8.2,8.8-5.1,11.1c0,0-0.6-2.3,0.4-4c1.1-1.7,4-5.7,6-7.8
		C93.1,194.5,100.1,187,100.5,186.1z"/>
	<path class="st4" d="M81.8,206.5c0,0-0.5,1.9,0.1,2.1c0.6,0.2,1.5,0.4,1.5,0.8c0,0.3-0.9,0.1-1.8,1.2c-0.9,1.1-1.4,2-2.3,2
		c0,0-1.7,3-3.4,4.2c-1.7,1.2-3.6,3.3-3.6,4.5c0,1.2,1.7,4.2-2.5,6.2c0,0-2.9,1.3-4.7-2.1c0,0,4.7,1,3.7-5.1c0,0,1.8,0,2.7,0.5
		c0,0,1.5-3.2,3.2-4.8C76.3,214.5,81.5,207.6,81.8,206.5z"/>
	<path class="st7" d="M90.3,219c0,0,1.1,0,1.5-0.3c0.4-0.3,1-0.3,0.9,0.3C92.6,219.5,92,220.6,90.3,219z"/>
	<path class="st4" d="M89.2,218.3c0,0,2.3-1.6,0.4-4.2c0,0-0.5-0.7-1.8-1.1c-1.1-0.3-1.9-1.1-0.3-1.9c1.7-0.8,6.1-1.5,6.9,3.3
		C95.1,218.8,89.2,218.3,89.2,218.3z"/>
	<path class="st7" d="M79.5,206.5c0,0-4.5,8.6-15.8,10.7c0,0-1.4,5.8-7,3c0,0-4-2.6,2.2-3.4c0,0,2.4-0.1,2.8-1.6
		c0,0,3.9,0.6,7.4-0.7c3.5-1.4,5.2-3.5,6.3-4.4C76.6,209.2,79.3,206.6,79.5,206.5z"/>
	<path class="st7" d="M56,220.9c0,0,1,0.9,2.9,0.8c0,0-2,0.5-3.3-0.2C55.6,221.5,56,221.1,56,220.9z"/>
	<path class="st7" d="M61.5,203c0,0-1.3,2.7-3,3.1c-1.7,0.4-3.9-0.3-3.3,1.5c0.6,1.8,2.2,2.8,4,2.4c0,0,1.2-0.3,2.2-1.4
		c1.1-1.1,3.2-2,3.6-1.9c0,0-0.6,0.6-1.5,1c-1,0.4-0.1,1.1,0.4,1.2c0.5,0.1,2.8,1.3,5.1,0.3c2.3-1.1,5.1-3.2,5.7-3.3
		c0,0-3.7,0-5.7-0.4c-2-0.4-4.2-1.1-5.3-1.1c-1.1,0-0.8-0.2-1-0.5C62.6,203.8,62.1,202.7,61.5,203z"/>
	<path class="st7" d="M54,206.6c0,0,0.4,2.2,2.2,3.3c0,0-2.1-0.7-2.8-1.4c0,0-0.3-0.2,0.3-0.2C53.7,208.4,53.6,206.5,54,206.6z"/>
	<path class="st4" d="M91.3,187.6c0,0,4.2-0.1,6.3-1.4c0,0-4.6,3-8.1,3.3C89.4,189.4,90.9,188,91.3,187.6z"/>
	<path class="st4" d="M86.5,193c0,0,4.4,0.1,6.6-1.1c0,0-3.4,2.9-7.8,2.6C85.2,194.6,86.1,193.6,86.5,193z"/>
	<path class="st4" d="M83,198.7c0,0,3.8-0.2,5.8-1.3c0,0-2.2,2.3-6.9,2.6C81.9,200,82.7,199.3,83,198.7z"/>
	<path class="st4" d="M76.4,201.9c0,0,3.4,1.1,8.2,0.5c0,0-3.3,1.5-5.8,1.1C78.7,203.5,77,203.3,76.4,201.9z"/>
	<path class="st4" d="M143.3,152.5c0,0,3.5,3.3,7.9,3.5c0,0,3.3,4.1,6.8,4.4l0.8,1.4c0,0-2.9-0.4-7.1-4.5
		C151.7,157.3,144.7,155.9,143.3,152.5z"/>
	<path class="st4" d="M142.7,157c0,0,2.7,2.7,7.1,3c0,0,2.9,3.5,6.8,4.3c0,0,3,0.6,3.2,0.6l0.8,1.4c0,0-5.2-1-9.5-4.6
		C151,161.7,145,160.2,142.7,157z"/>
	<path class="st4" d="M144.1,163.2c0,0,4.8,3,7.2,2.3c0,0,1.4,2.6,3.8,3.4c0,0,3.4,1.7,7.9,1.5l1,1.5c0,0-4-0.4-7.2-1.9
		c-3.2-1.5-4.4-2.5-5.1-2.8C150.9,166.7,145.4,164.5,144.1,163.2z"/>
	<path class="st4" d="M170.5,175.4c0,0-3.2,3.2-11.4,1.7c0,0,3.8-0.3,1.4-1c-2.4-0.7-4.9-1.3-5.9-2.3c0,0,3.6,1.8,8,1.9
		c4.3,0,5.6-1.1,5.6-1.1S169.5,175.2,170.5,175.4z"/>
	<path class="st4" d="M145,178.7c0,0,2.5-4.9,2.6-8.2c0,0,1.4,5.7-2.5,11.2L145,178.7z"/>
	<path class="st4" d="M150.8,171.9c0,0,2.9,4.3,7.9,5.1c0,0,1.6,2.7,0.7,4.9l-5.6-6.5c0,0-0.6,5.4-3.2,8.1c-2.6,2.8-4.7,3.9-7,3.5
		c0,0,4.6-0.5,6.3-4.1C151.6,179.6,152.6,177.4,150.8,171.9z"/>
	<path class="st4" d="M153,180.1c0,0,3.1,2.6,5.8,2.2c0,0-0.8,0.9-2.5,0.5c0,0,3.8,4.6,11.1,2.2c0,0-1.3,4.1-9.1-0.1
		c0,0,1.2,2.8,4.5,4.4c3.3,1.6,7,0.9,7.8,0.5l0.9,0.3c0,0-0.1,1.3-1.1,1.3c-0.8,0.1-4.8,0.3-9.1-2.5c0,0,6.3,9.2,13.6,7.1l0.8,0.3
		l-0.6,1.2c0,0-5.5,0.2-9.4-3.4c0,0,3.5,5.1,6.8,6.2c3.3,1,5.9,0.1,6.7-0.4h1.4c0,0-0.3,2.4-4.5,1.8c-4.2-0.6-5.1-1.5-5.1-1.5
		s2.7,3.7,2.7,5c0,0-1.7-3.1-3.7-5.4c-2-2.3-6-7-6-7s-6.1-7.4-6.9-8.2c-0.8-0.8-4.3-4.4-4.3-4.4L153,180.1z"/>
	<path class="st7" d="M186.8,203.5c0,0,1.4-0.6,4.5-0.7c0,0,2.4-0.2,3.4-1.2c1-1,0.9-2.4,4.2-2.3c0,0,1.9,0.1,2.8,2.1
		c0,0,1.2-0.1,1.6,0.8c0,0-0.4,1-0.5,2.4c-0.1,1.4-0.3,3.2-2,2.7c0,0,0.4-1.1-0.3-0.8c-0.7,0.3-0.8,0.1-0.7-0.6c0,0-1,1.6-3.2,1
		c0,0,0.4-0.4,0.4-0.8c0,0,2.2-0.4,2-2.3c-0.3-1.9-2.1-2-2.8-1.7c-0.7,0.3-1.7,2-2.6,2C192.6,204.1,188.1,203.4,186.8,203.5z"/>
	<path class="st7" d="M195.3,216.5c0,0,1,1.8,3.9,1.6c2.9-0.2,2.7-1.1,2.5-1.3c-0.2-0.1,2.3-2.4,0.1-4.7c-2.1-2.2-5-2.5-7.4-1
		c0,0,0,0.3-0.7-0.3c-0.7-0.6-6.3-3.3-8.3-3.6c0,0,7.5,2.8,7.9,4.1c0.4,1.3-2.5-0.1-2.5-0.1s-5-2.5-6.3-2.5c0,0,5.5,2.2,8.1,4.1
		c0,0,1.3,1,1.8,0.7c0.5-0.3,3-2.2,3.6,0C198.7,215.9,196,217,195.3,216.5z"/>
	<path class="st7" d="M184.1,212.9c0,0,0,0.3,0.3,0.6c0.3,0.3,2.7,2.1,2.4,4.2c0,0,1.1-1.5,1.5,0.3c0,0,3.8,3.1-1,6.3
		c0,0,1.4,0.5,1.1,1.4c-0.2,1-1.3,0.9-1.3,0.9s0.5,0.7,1.9,0.4c1.4-0.3,2.4-0.5,2.5-0.3c0,0,0.6-0.2,0.5-1c0,0,0.6-0.7,0-1.5
		c0,0,1.5-2.5,0.6-4.6c-0.9-2.1-3.9-2.5-3.9-2.5L184.1,212.9z"/>
	<path class="st7" d="M166.8,217.4c0,0,0.7-0.1,1.1-0.4c0.4-0.2,1.4-0.4,1.4-0.3c0.1,0,0.5-1.6-0.3-1.2
		C168.2,216,166.8,217.4,166.8,217.4z"/>
	<path class="st7" d="M171.1,212.8c0,0,6.2,2.3,6.4-4.5c0,0-0.9,4.5-6.6,2.6c0,0-4.5-1.8-4.9,1.3c0,0-0.1,0.6,0.8,1.2
		c0.9,0.6-0.4,2.2-1.5,2C165.2,215.4,170,216.8,171.1,212.8z"/>
	<path class="st9" d="M151.9,129.4c0,0,4.5,1.8,3-0.3v-0.3c0,0,3,0.9,6.9-3.4c0,0,0.3,1.2,0.2,1.6c-0.1,0.5-1.2,1.9-3.1,2.8
		c0,0,0.7,6.7,2.8,9.9c2.1,3.2,3.7,5.3,4.5,5.8c0,0-2.2-1.3-4.3-4.8c-2.2-3.6-3.3-8.3-3.6-10.5l-1.3,0.2c0,0,0.5,4,0.9,4.3l0.7,14.4
		l-3.1-18.7c0,0-2.1-0.1-3.5-0.9L151.9,129.4z"/>
	<path class="st4" d="M159,154.4l-0.2-2.8c0,0,3.2-1,4.3-6.6l4.2,3.6l1.2-0.9c0,0,0.4,11.8,1.3,15.4c0.8,3.5,1.9,5.6,1.9,5.6
		s-5.1-1.1-5.9-12.3l-0.9-8.9C164.9,147.4,163,153,159,154.4z"/>
	<polygon class="st7" points="163.1,128.1 165.7,128.4 166.6,142 	"/>
	<path class="st9" d="M167,145.5l0.2,2.3c0,0,5.6-4.7,5.3-14.7l8.8,41.1l-6.2-40.9c0,0-3.6-3.4-4.9-6.7l-0.4,0.4
		C169.8,127,173.8,137.9,167,145.5z"/>
	<path class="st9" d="M179.2,136.5l3.2,1.3c0,0,7.8,30.8,0.3,45.9l-0.4-3.5c0,0-8.5-4.3-12.5-34.8l0.1-0.4c0,0,3.5,28.4,12,34.4
		c0,0,5.8-13.2-0.9-41.3C181,137.9,180.1,136.8,179.2,136.5z"/>
	<path class="st7" d="M182.8,137.9l4.3,1.1c0,0,2.1,6.1,2.5,6.7c0.3,0.6,3.1,5.7,4.3,8.1c0,0,4.8,13.3,13.6,18.4c0,0-6,2.4-12.2-7.7
		c-6.2-10.1-10.8-19.6-10.8-19.6L182.8,137.9z"/>
	<path class="st9" d="M181.6,62.7c0,0-8.5,2.2-12,9.1c0,0,2.9,0.1,3.5,0.5l8.8-9.1l-7.3,9.8c0,0,2.6,1.8,3.3,3.4c0,0,4.8-0.9,7.5,2
		c2.9,3,2.8,5.7,1.8,8.4c0,0,3.8,3.3,2.8,8c-1.1,4.7-3.6,5.5-3.6,5.5s2.1,4.7,0.7,8.2c-1.4,3.6-3.8,4.4-3.8,4.4s-0.7,5.9-3.3,7.8
		c-2.6,1.9-5.1,2.2-7,2.3c0,0-3.7,7.3-10.9,4.5l0.1-0.5c0,0,3.7,1.5,3.7,0.4c0,0,0.2-0.6-1.9-0.6c0,0-1.4-0.1-1.8-0.8
		c0,0,6.3,2.7,9.7-4.6c0,0,5.2,0.4,7.8-3.1c2.6-3.5,1.8-6.6,1.8-6.6s3.9-1.3,4.3-5.2c0.4-3.8-1.5-6.9-1.5-6.9s4.3-1.4,4-7.7
		c0,0-0.3-3.2-3-4.9c0,0,2.3-4.1-0.8-7.3c0,0-2.7-2.9-7.8-1.9c0,0-1.2-4.4-6.5-4.5c0,0,2.9-0.5,1.2-1.1c0,0-0.9-0.2-3.1,0.1l1-0.7
		C169.2,71.5,173.9,64.1,181.6,62.7z"/>
	<path class="st9" d="M181.6,62.7c0,0-8.5,2.2-12,9.1c0,0,2.9,0.1,3.5,0.5l8.8-9.1l-7.3,9.8c0,0,2.6,1.8,3.3,3.4c0,0,4.8-0.9,7.5,2
		c2.9,3,2.8,5.7,1.8,8.4c0,0,3.8,3.3,2.8,8c-1.1,4.7-3.6,5.5-3.6,5.5s2.1,4.7,0.7,8.2c-1.4,3.6-3.8,4.4-3.8,4.4s-0.7,5.9-3.3,7.8
		c-2.6,1.9-5.1,2.2-7,2.3c0,0-3.7,7.3-10.9,4.5l0.1-0.5c0,0,3.7,1.5,3.7,0.4c0,0,0.2-0.6-1.9-0.6c0,0-1.4-0.1-1.8-0.8
		c0,0,6.3,2.7,9.7-4.6c0,0,5.2,0.4,7.8-3.1c2.6-3.5,1.8-6.6,1.8-6.6s3.9-1.3,4.3-5.2c0.4-3.8-1.5-6.9-1.5-6.9s4.3-1.4,4-7.7
		c0,0-0.3-3.2-3-4.9c0,0,2.3-4.1-0.8-7.3c0,0-2.7-2.9-7.8-1.9c0,0-1.2-4.4-6.5-4.5c0,0,2.9-0.5,1.2-1.1c0,0-0.9-0.2-3.1,0.1l1-0.7
		C169.2,71.5,173.9,64.1,181.6,62.7z"/>
	<path class="st9" d="M183.6,61.1c0,0,1.5,5.2-0.7,10.2c0,0,5-2.3,7.2-2.4c0,0-7.5,1.6-11.9,7.2l-0.2-0.1c0,0,5.8-5.9,4.3-13.1
		L183.6,61.1z"/>
	<polygon class="st7" points="173.9,123.1 184.2,134.9 176.1,122.8 	"/>
	<path class="st9" d="M181.3,119.5c0,0,3.4,5.5,11.7,6.7c0,0-3.2-0.1-4.5-0.7l21.2,33.9l-23.9-34.6c0,0,2.7,7.5,1.4,13.7l-1.9-2.5
		c0,0,1.9-7.4-4.3-16.1L181.3,119.5z"/>
	<path class="st9" d="M195.8,126.3c0,0,1.6,0,2.2-0.2c0,0,6.6,9.7,8.5,13.3c1.6,2.8,5.9,10.4,6.8,18.1c0.9,7.7,0.3,9.5,0.3,9.5
		l-1.5-2.8c0,0-8.7,0.2-23.3-22.7c0,0,14.4,21.6,23,21.9C211.9,163.4,215.3,152.6,195.8,126.3z"/>
	<path class="st9" d="M186.1,78.6l-1.2-1l10.1-8.7c0,0,1.5,9.7-7.4,16.8c0,0,0.3-1.4,0.3-1.9c0,0,5.6-5,5.3-12.7L186.1,78.6z"/>
	<path class="st9" d="M200.5,125l-2.2-1.6c0,0,0.1-7.7-11.1-14.6l0.1-0.4c0,0,13.9,2.1,17.9-4.9c0,0,17.2,0.9,21.1-6.7h2.1
		c0,0-2.3,5.6-14.1,7.6l-7.4,0.3c0,0-3.6,5.1-11.9,5.5l30.6,14.3l-31.4-12.2C194.1,112.1,199.8,116.9,200.5,125z"/>
	<path class="st9" d="M200.5,125l-2.2-1.6c0,0,0.1-7.7-11.1-14.6l0.1-0.4c0,0,13.9,2.1,17.9-4.9c0,0,17.1,0.8,21.1-6.9l2.3,0
		c0,0-2.3,5.8-14,7.7l-7.6,0.3c0,0-3.6,5.1-11.9,5.5l30.6,14.3l-31.4-12.2C194.1,112.1,199.8,116.9,200.5,125z"/>
	<path class="st9" d="M195.7,95.2c0,0,5.4,2.3,8.1,4.8l-1.9-1.8c0,0,18.7-1.5,22.3-1.6l-25.1-0.1L195.7,95.2z"/>
	<path class="st7" d="M175.2,64c0,0,5.8-3.2,6.8-3.5c1-0.4,16.2-13,16.2-13l-14.4,13.5C183.8,60.9,177,62.7,175.2,64z"/>
	<polygon class="st9" points="192.4,68.6 195.2,68.7 206.8,55.5 	"/>
	<path class="st9" d="M204.5,82.8l-1.6,0.9c0,0-1.6,7.5-13.2,12l-0.2,0.8L195,95c0,0,9.2-6,9.9-12.2l13-8.1l-14.5,7.3
		c0,0-7.1-0.1-12.2,1.7C191.1,83.7,201.3,81.3,204.5,82.8z"/>
	<path class="st7" d="M201.8,44l-2,1.8c0,0-0.4,7-8.1,13.6l-7.7,6.1v1c0,0,9.6-6.5,12.3-10C199.6,52.4,201.8,48.5,201.8,44z"/>
	<path class="st7" d="M210,52.7l-2.5,2.1c0,0,0.1,5.4-3.4,10.1c-3.5,4.8-9,8.9-9,8.9l-0.3,1.4C194.8,75.3,208,68.5,210,52.7z"/>
	<path class="st7" d="M212.7,60.1c0,0,3.6,3.8-3.6,11.8c0,0-5.6,1.2-17.2,9.6c0,0,0.5-0.8,0.5-0.9l11.9-8.4
		C204.3,72.3,212.6,67,212.7,60.1z"/>
	<path class="st7" d="M219.6,73.8l2.6-1.2c0,0-2,7.7-12.1,13.7c0,0-4,1.5-7.7,2.1l0.3-0.4C202.7,88,215.3,84.4,219.6,73.8z"/>
	<path class="st7" d="M224.4,80.8c0,0,3.7,5.3-9.7,10c0,0-8.6-0.5-13.7,0l6.7-0.6C207.7,90.3,221.9,86.7,224.4,80.8z"/>
	<path class="st8" d="M198.9,46c0,0-24.7,5.4-30.2,23c0,0-3.1,3.6-3.1,4.8c0,0-3.5,2.6-2.5,7.6c0,0-4.5,1.8-4.3,6.8
		c0.2,5,5.1,5.3,6.2,5l1.2,0.3c0,0-11.6,2.9-10.8-8.4C155.7,81,163.1,54.2,198.9,46z"/>
	<path class="st8" d="M160,97.7c0,0,3-0.1,6-3.8h0.2c0,0-0.9,4.4-0.1,5.8c0,0,4.1,0.1,6.1-1.7c0,0,5.9,13.4-25.6,16.9
		c0,0,1.6-6.1,1.6-7.4h1c0,0,6.7,2.9,13-3.7C162.3,103.8,165.7,100.3,160,97.7z"/>
	<path class="st7" d="M168.4,89.1c0,0-2,2.8-2.3,4.3c0,0-5.2-0.8-5.9-4.7c-0.7-3.9,3.2-6.3,4.8-6.8c0,0-2-6.5,4.2-8.2
		c0,0,5.4-1.2,7.3,4.2l-1,1.8c0,0-2.9-3.3-6.4-3.4c0,0-2.7,4.3-1.2,8.1c0,0-3.8-0.5-5.7,1.4c0,0,1.1,3.3,4.4,4.6
		C166.6,90.5,167.8,89.3,168.4,89.1z"/>
	<path class="st7" d="M175.6,80l1,1.7c0,0,3.1-1.3,5.7-0.4c0,0,0.9,2.9-1.5,5.6c0,0,5,3.5,5.4,8c0,0-1.5,1-5.2,0.8c0,0,2,0.5,4.2,0
		c2.2-0.5,2,2.2-0.7,3.7c0,0,4-1.3,3.5-7.4c0,0-0.3-3-2.9-4.6c0,0,2.1-4-0.4-6.9c-1-1.1-3.1-2.8-8-2.2L175.6,80z"/>
	<path class="st9" d="M177.8,85.5c0,0-2.2,2.2-3.1,3.8l11.1,5.4C185.7,94.6,186.1,90.5,177.8,85.5z"/>
	<path class="st9" d="M174.4,89.3l1.1,4.6c0,0-2.4,4.9-8.7,5.3L174.4,89.3z"/>
	<path class="st9" d="M177.6,85.3c0,0-2.2,1.9-3.1,3.6c0,0-3.4-9.1-5.1-11.9c0,0-3.1,3.8,0.2,10.7c0,0-3.7-6-0.4-10.8
		C169.3,76.9,175.5,77,177.6,85.3z"/>
	<path class="st9" d="M181.9,81.6l-4,3.7l2.4,1.5c0,0,2.4-1.9,1.7-5.2c0,0-2-1-5.1,0.3C176.9,81.9,179.7,80.8,181.9,81.6z"/>
	<path class="st9" d="M168.2,85c0,0,1.1,2.7,1.7,3.3l-7.1-2.3C162.8,86,164.8,84.5,168.2,85z"/>
	<linearGradient id="SVGID_2_" gradientUnits="userSpaceOnUse" x1="144.7257" y1="108.6146" x2="180.6114" y2="108.6146">
		<stop  offset="0" style="stop-color:#FFFFFF"/>
		<stop  offset="1" style="stop-color:#BBBDBE"/>
	</linearGradient>
	<path class="st10" d="M175.7,94.1c0,0,2.7,1.1,4.2,1.2c0,0,8.5,23.9-35.2,27.7l1.2-3.6C146,119.5,183.7,118.7,175.7,94.1z"/>
	<path class="st4" d="M227.5,125l2.6,0.9c0,0-7.9,7-29.7-2.5c0,0-0.5-2.4-0.7-2.7C199.7,120.7,218.9,130.8,227.5,125z"/>
	<path class="st11" d="M198.2,126.1l0.4,0.7c0,0,13.9,8.4,15.7,9.2c1.8,0.8,9.4,4.4,14-0.7c0,0-2.9,1.5-7.7-0.4c0,0-4.2-1.6-8.8-4.5
		c-4.6-2.9-11.4-6.9-11.4-6.9l0.3,1.7L198.2,126.1z"/>
	<path class="st9" d="M91.6,145.3c0,0,0,8.5,2.3,12c0,0-4.1,17.5-10.7,15.6c0,0,3.9-2.2,5.4-7.4c1.5-5.2,2-6.9,2.5-19.9L91.6,145.3z
		"/>
	<path class="st7" d="M86,126.9c0,0-3.1,10.1,0.1,16c0,0-3.9-5.5-0.3-16.3L86,126.9z"/>
	<path class="st9" d="M70.8,177.9l11.7-37.6c0,0,1.5,5.2,4.5,8c0,0-7.9,27.1-17.3,32.9l0.6-1.9c0,0-4.2-9.7,3.7-39.4
		c0,0-8.9,26.4-4.5,41.8l-1.3,3.5c0,0,13.4-7.9,21.1-38.1l-2.1,0.7c0,0-6.5-5.4-4.4-16.8l-0.8,1.4L70.8,177.9z"/>
	<path class="st7" d="M74.8,118.8c0,0-5.8,7.7-2.8,18.8l-0.2,0.3C71.7,137.8,68.2,127.5,74.8,118.8z"/>
	<path class="st8" d="M70.5,140.3l2.6-0.8c0,0-3.4,12.7-5.5,16.7c-2.1,4.1-10.7,23.3-22.5,20.8c0,0,10.2-2.5,16.4-16.2
		c0,0,2.2-4.7,2.6-5.6c0.4-0.9,3.8-8.9,3.8-8.9L70.5,140.3z"/>
	<path class="st9" d="M68.7,108.2c0,0-6.8,2.4-8.9,3.7c0,0-28.6,12.1-29.3,12.4c-0.7,0.3,28-9.9,28-9.9s1.9-3.2,10.1-5.9V108.2z"/>
	<path class="st8" d="M80,73.3c0,0-1.4-6.3-0.3-7.1c0,0,4.1,5.5,5.9,9.1c0,0-3.3,1.6-5-0.8l1.9,2.8c0,0,1.9-0.7,3.4-0.4
		c0,0,1.4-0.5,2.7-0.4c0,0-1.2-1.4-1.9-2.3c-0.7-1-5.3-7.2-6.7-8.2c0,0,3.4-1.1,8.9,4.2c0,0,3.7,4,4.7,8.7c0,0-1.1-11.4-14.8-14.4
		C78.8,64.3,77.7,68.5,80,73.3z"/>
	<path class="st8" d="M76.1,53.2c0,0-13.1-8.3-20.2-8.3c0,0,0.5,5.3,8.8,12.3c0,0-6.9-6.5-6-10.2C58.7,47,62.3,45.5,76.1,53.2z"/>
	<path class="st8" d="M44.2,53l2.4,1.3c0,0-0.3,6.2,8.2,12.1c0,0,6.9,5,11.4,5.1c0,0-3.4,0-4.4,0.6l-6.6-4.9L49,61.6l-0.8-0.1
		C48.3,61.6,44.9,57.1,44.2,53z"/>
	<path class="st8" d="M61.8,73.5c0,0,0.4,3.2,1.1,4.1c0,0-22-8.8-22.3-16.7c0,0,1.6,3.7,5.6,6.6C50.2,70.4,59.7,75.2,61.8,73.5z"/>
	<path class="st8" d="M48.2,73.2c0,0-10.4-1.2-12.6,0.7l-2-0.7c0,0,1.6,4.9,14,10.5c0,0,6.3,2.1,9.5-0.3l0.4,0.2
		c0,0-4.8,2.4-4.9,2.8c0,0-15.9-5.6-19.5-13.1C33.2,73.2,38.6,70.9,48.2,73.2z"/>
	<path class="st8" d="M52.5,87.2c0,0,0.7,1.8,1.4,2.2c0,0-7.5-1.1-10.6-0.6c0,0-11.2-3.5-13.1-8.1C30.2,80.7,37.9,89.2,52.5,87.2z"
		/>
	<path class="st8" d="M38.6,90.6c0,0-8.4,1.4-10.4,4.1l-0.8-0.1c0,0,0.5,3.6,15,7.5c0,0,7.5,2,11.8-1.8l0.1,0.2c0,0-2.7,2-3,2.6
		c0,0-5.1,0.4-10.7-1.2c-5.6-1.6-11.8-4.2-13.9-7.3C26.7,94.6,31.1,91,38.6,90.6z"/>
	<path class="st9" d="M29.4,95c0,0,17.1,1.6,20.5,1.8c3.4,0.2,11.7,0.1,13.2-0.1c0,0-5.1,0.5-6.9,2.1c0,0-8.2-1.3-11.1-1.7"/>
	<path class="st8" d="M26.5,103.5c0,0,3.4,2.8,9.4,2.6c6.1-0.2,13.2-1,14.3-0.6l1.6,1.3c0,0-7.9,0.8-11.3,0.7
		C37.2,107.6,29.2,108.2,26.5,103.5z"/>
	<path class="st8" d="M43.9,111.9c0,0-14,7.6-14.2,12.5l-1,0.4c0,0,0.7,1.7,10.7,0l0.6,0.4c0,0-1.3,0-1.5,0.1c-0.2,0-7.3,1.5-11-0.1
		C27.5,125.4,29.7,118.9,43.9,111.9z"/>
	<path class="st4" d="M55.9,119.8c0,0-0.5,2.1-0.5,2.9c0,0-8.3,2.8-12,3.3c0,0-1,0.3-1.4-0.4c0,0-0.4-0.5-1.7-0.4l-0.5-0.3
		C39.6,125,49.4,123.5,55.9,119.8z"/>
	<path class="st9" d="M72.1,120.5c0,0-1.7,2.9-1.8,4.3l-30.9,39.6c0,0,7.1,0.7,21-17.4c0,0,7.3-10.2,8.9-14.5c0,0,0.1-2.5,0.4-3.7
		c0,0-0.3,5.6,0,7.1c0,0-16.7,29.6-33.4,31.8l16.3-21.9l17.6-24L72.1,120.5z"/>
	<path class="st9" d="M91.6,145.3c0,0,0,8.5,2.3,12c0,0-4.1,17.5-10.7,15.6c0,0,3.9-2.2,5.4-7.4c1.5-5.2,2-6.9,2.5-19.9L91.6,145.3z
		"/>
	<path class="st9" d="M70.8,177.9l11.7-37.6c0,0,1.5,5.2,4.5,8c0,0-7.9,27.1-17.3,32.9l0.6-1.9c0,0-4.2-9.7,3.7-39.4
		c0,0-8.9,26.4-4.5,41.8l-1.3,3.5c0,0,13.4-7.9,21.1-38.1l-2.1,0.7c0,0-6.5-5.4-4.4-16.8l-0.8,1.4L70.8,177.9z"/>
	<path class="st8" d="M70.5,140.3l2.6-0.8c0,0-3.4,12.7-5.5,16.7c-2.1,4.1-10.7,23.3-22.5,20.8c0,0,10.2-2.5,16.4-16.2
		c0,0,2.2-4.7,2.6-5.6c0.4-0.9,3.8-8.9,3.8-8.9L70.5,140.3z"/>
	<path class="st9" d="M72.1,120.5c0,0-1.7,2.9-1.8,4.3l-30.9,39.6c0,0,7.1,0.7,21-17.4c0,0,7.3-10.2,8.9-14.5c0,0,0.1-2.5,0.4-3.7
		c0,0-0.3,5.6,0,7.1c0,0-16.7,29.6-33.4,31.8l16.3-21.9l17.6-24L72.1,120.5z"/>
	<path class="st8" d="M60.1,124.9c0,0-11.1,12.7-15.4,20.2c-4.3,7.5-5.5,11.6-5.7,18.8l-0.7,1c0,0,0-5.5,1-8.8
		C40.3,152.7,44.6,140.4,60.1,124.9z"/>
	<path class="st8" d="M58.8,123.8l-9.6,10.3c0,0-9,5.4-13.1,6.3c0,0-6.8,2.9-10.4-3c0,0,4.3,1.3,8.4,0.1c0,0,3.5-0.9,7.7-3.1
		c0,0,9-5.7,10.9-7.2c1.9-1.5,5.4-3.5,5.4-3.5L58.8,123.8z"/>
	<path class="st9" d="M98,130.9c0,0,0.6,2.1,2.2,3.2l-4.4,19.1l2.1-17.9c0,0-2.3,6.2-4.8,8.4c0,0,0.4,9.2,2.2,12c0,0,7.3-5.2,8.1-19
		c0,0,0.2-0.8-0.8-1.3c0,0-1.2-0.7-1.6-1.1c0,0,3,1.4,4.3,1.5c0,0-1.4,16.1-10.3,22.6l0.2-2.5c0,0-2-2.3-2.4-11.8
		c0,0-2.5,2.5-5.2,3.5l0.4-2c0,0,7.3-2.8,9.3-15c0,0-3.3,0.6-5,0L88,145l2-14.9c0,0-2.4-1.5-4.9-4.2l0.1-0.2l0.2,0.2
		c0,0,0.6-0.9,0.7-1.7c0,0,0-0.2-0.1-0.3l0.1,0l0.3,0.5c0,0,4.2,6.9,11.4,3.9c0,0,0.1,0.8-0.2,1.5L98,130c0,0,0.3-0.6,0.1-1.1l0-0.3
		c0,0,1.2,3.6,8.3,2.6c0,0,0.7-0.2,0.8,0.3c0.1,0.6,0.1,1.1,0.1,1.1l0.2,0v-1l-0.2-0.2l0-0.1c0,0,3.3,2.8,7.3-0.4l1.3,2l-0.4-0.2
		c0,0-4.3,2.6-8.4,0.2C107.2,132.9,102.3,134.2,98,130.9z"/>
	<path class="st9" d="M75.8,118.5c0,0,0.5,1.4,1.3,2.3c0,0,0.7,0.9,1.3,1.9c0.6,0.9,1.2,0.9,1.3,0.8c0.2-0.1,0.8-1.1,0.8-1.1
		s2.2,2.4,5.4,1.6l0,0.1c0,0-0.8,1.7-1.1,2.5c-0.3,0.8-2.6,5.7-3.8,7.2c-1.2,1.5-4.1,4.7-10.4,6.5l1.3-2.4c0,0,2.6-0.1,4.9-1.9
		c2.3-1.8,5.2-4.4,7.3-10c0,0-3.5-1.2-4.6-2l-6.9,12l4.8-12.5c0,0,0.4-0.8-0.2-1.7C76.8,120.8,75.9,119.5,75.8,118.5z"/>
	<path class="st9" d="M68.3,108.9c0,0-9.7,3.3-10.7,12.8c0,0,7.3,2.6,16.9-4.3c0,0-2.7-1.8-3.5-2.9l-12.6,6.6c0,0,11.2-7.5,11.6-8.4
		l1.7-0.7c0,0,2.2,3.4,4.9,4.5c0,0-9.6,10-20.9,6.3l1.6-0.9C57.2,121.8,57.8,112.4,68.3,108.9z"/>
	<path class="st9" d="M59.1,99.2c0,0-6.3,3.1-6.9,6.1l14.6-2.5l1.6,2.5v0.2l-1-1l-15.2,1.2c0,0,4.6,3.2,13.2,3.7
		c0,0-3.2,1.2-3.8,1.6c0,0-5.5-0.5-9.9-3.6l0.5-0.1c0,0,4.3,2.6,4.8,1.8c0.5-0.7-1.7-1-2.7-1.5c-1-0.5-3.2-1.8-3-2
		C51.4,105.2,53.4,101.3,59.1,99.2z"/>
	<path class="st9" d="M69.1,84.5c0,0-9.1-1.4-14,2.7c0,0,3.7,1.2,7,1.9c3.3,0.7,8.3,1.7,8.3,1.7s-1.5,1.1-1.6,1.4L55,87.3
		c0,0,1.2,5,8.3,8.2c0,0,2.4,1,2.9,0.3c0.5-0.7,1.1-1.9,1.5-2.1c0.4-0.2-1.2,1.3-1.5,3.4c0,0-2.6-0.9-3.3-1.2
		c-0.7-0.3-6.2-2.8-8.5-8.6C54.5,87.2,58.5,82.9,69.1,84.5z"/>
	<path class="st9" d="M80.4,77.4c0,0-8.8-4.9-16.4-3.7c0,0,0.3,9,7.4,8.4c0,0-1.2,1.8-2,1.3c-0.8-0.5-5.4-3.3-6-10.1
		C63.4,73.3,71.4,71.7,80.4,77.4z"/>
	<path class="st9" d="M64.9,74.2c0,0,10,5.2,12.8,6.2l-0.3,0.9c0,0-1.6-0.6-3.4-0.6L64.9,74.2z"/>
	<path class="st9" d="M59.1,47.2l12.7,9.8c0,0,7.6,5.9,11.4,7l-4.5-1.5c0,0-1.2-0.4-1.4,1.4c0,0-0.2,1.2-0.3,1.6
		c0,0,0.2-2.2-0.5-3.1c-0.7-0.9-4.7-4.4-4.7-4.4L59.1,47.2z"/>
	<path class="st9" d="M78,72.3c0,0,0.6,2,0.9,2.3l0.1,0.2c0,0-7-3.1-9.7-3.2L46.9,54.5c0,0,3.5-1.3,13.2,2.7c0,0-10-3.6-12.2-2.2
		l25.1,16.6c0,0,3.1,1.9,5.4,2.8C78.5,74.4,78,72.9,78,72.3z"/>
	<path class="st9" d="M36.7,74.3l28.5,8.4l-0.6-1l1.3,1.4c0,0-4.8-0.5-6.2,0C59.7,83,38.8,74.8,36.7,74.3z"/>
	<path class="st9" d="M86.2,76.9c0,0,1.8-0.6,3-0.1c1.2,0.4,3.8,2.5,3.6,6.8l-1.5,1.1C91.3,84.6,92.2,78,86.2,76.9z"/>
	<path class="st9" d="M92.9,83.7c0,0,4.6,1.4,4.5,5.3c-0.1,3.9-3.1,5.1-5.8,4.8c0,0,4.3-0.1,4.4-4c0,0,0.3-4.6-4.5-5L92.9,83.7z"/>
	<path class="st8" d="M85.3,59.9c0,0,22.3,16.7,17.1,30.2c0,0-2.6,6.2-9.2,4c0,0,7.4-0.4,7.3-7.5C100.5,86.6,100.4,76.9,85.3,59.9z"
		/>
	<path class="st9" d="M87.2,91.8l5-0.4c0,0-0.9,2.8-2.9,3.3C89.2,94.6,87.8,92.4,87.2,91.8z"/>
	<path class="st9" d="M87,80.3l-4,11.8c0,0,2.6,0.1,3.9-0.3C86.9,91.8,90.3,85,87,80.3z"/>
	<path class="st9" d="M90.3,103.4L83,92.3c0,0,2.9,0,3.9-0.4C86.9,91.9,91.6,96.3,90.3,103.4z"/>
	<path class="st9" d="M80.4,86.3c0,0-0.8,2.4-0.8,3.5c0,0,2,1.6,2.5,2c0,0-2.2-1.4-3.9-3.3l-2.7-2.6C75.5,85.9,77.3,85.2,80.4,86.3z
		"/>
	<path class="st9" d="M82.8,92.3l-2,6c0,0-5.5,2.5-9.8,0.1L82.8,92.3z"/>
	<path class="st8" d="M80.2,121.8c0,0-3.3-4.2-2.3-6.7c0,0-2.9-2.2-2.9-4.4c0,0,1.4,2.8,3.3,3.3c0,0,5.1,3.8,8,4.5
		c0,0-14.8-5.7-10.8-18.8c0,0-3.5-0.1-4.7-1.2c0,0,0.4-6.2,7-8.2c0,0-1.7,0.1-2.3,0.5c0,0-1.7-2.9-0.1-5c0,0,1.7-0.9,5.1,0.3
		c0,0,3.2-5.8,6.6-6c0,0,2.6,2.4,1.3,8.3c0,0,3.6,1.5,4,2.9c0,0-0.2,1.1-1.1,2.2c0,0,4.4,0.1,4.5-3.5c0.1-3.5-2.1-4.9-4.6-5.1
		c0,0,0.8-6.9-5.3-7.9c0,0-4.8-0.8-7.5,5.1c0,0-5.1-1.6-7.5,2.1c0,0-1.5,2.9,0.7,6.6c0,0-4.6,2.8-4.4,8.2c0,0,0.2,2.8,3,6.2
		c0,0-0.7,6.6,6.4,11.1C76.6,116.3,78.3,120.9,80.2,121.8z"/>
	<linearGradient id="SVGID_3_" gradientUnits="userSpaceOnUse" x1="100.2586" y1="117.5934" x2="74.0624" y2="98.2395">
		<stop  offset="0" style="stop-color:#FFFFFF"/>
		<stop  offset="1" style="stop-color:#BBBDBE"/>
	</linearGradient>
	<path class="st12" d="M80.8,98.6c0,0,2,3.8,8.7,4.9c0,0-2.9-0.1-5-1.2c0,0-2.8,7.2,8.9,10.8c0,0,6.3,1.9,12.2,2.5l-0.7,3.8
		c0,0-10.7-1.4-15.9-4.2C83.9,112.2,77.9,108.7,80.8,98.6z"/>
	<path class="st9" d="M125.6,48.9c0,0,1,0.5,2.3,0.8c1.3,0.3,2.4,0.6,2.4,0.8c0,0.2-0.9,2-2.8,1.6C125.7,51.8,125.4,50.5,125.6,48.9
		z"/>
	<path class="st7" d="M204.4,103.2l-17.2-1.3c0.2,0.5,0.3,1.2,0.4,1.9L204.4,103.2z M183.5,113c0,0.1,0,0.3-0.1,0.6l12.8,7.9
		l-11.6-9.2C184.1,112.7,183.7,112.9,183.5,113z M201.4,84.6l-11.6,5.4c0.2,0.5,0.3,1,0.4,1.5L201.4,84.6z"/>
	<path class="st7" d="M205,106.8L205,106.8c-0.6,0.4-1.4,0.9-2.2,1.4c1.3,0.2,9.3,2.7,9.3,2.7c17.5,2.1,16.5-7.5,16.5-7.5
		C226.3,109.9,205,106.8,205,106.8z"/>
	<path class="st13" d="M202.9,205.3c-0.2,1.3-0.7,2.1-0.7,2.1c1.2,0.6,1.6,2,2.3,3c2.4-1.5,2.1-7.6-0.8-8.2
		C203.7,202.2,203.1,204,202.9,205.3z"/>
	<path class="st13" d="M196.9,219.1c0.1,1.9-0.1,3.4-0.6,4.9c3.4,0.2,5-2.3,5.5-5c0,0-0.1-0.4-1.2-0.1
		C199.4,219.2,196.9,219.1,196.9,219.1z"/>
	<path class="st13" d="M186.8,227.2c-0.7,1-2,1.6-2.9,2.5c2.5,1.5,6.3,0.3,7.2-1.7c0.1-0.3,0.1-0.7,0.2-0.9c0,0,0.1-0.5-1.3,0
		C188.7,227.5,187.1,227.5,186.8,227.2z"/>
	<path class="st13" d="M166.3,218c-1,0.1-2.2,0-2.2,0c1,3.2,6.6,4.5,8.5,1.9c-1.6-0.3-2.3-1.5-2.8-2.9
		C169.5,216.8,167.3,217.8,166.3,218z"/>
	<path class="st13" d="M88.6,220.1c-1.3,0-1.7-0.7-1.7-0.7c-0.1,1-0.1,1.6-0.5,2.5c-0.3,0.6-1,0.7-1.3,1.3c2.4,1.4,7,0.5,6.7-2.9
		C91.4,220,89.9,220.1,88.6,220.1z"/>
	<path class="st13" d="M65.9,229.6c0.6,2.9,6.6,4.6,8.6,1.8c-0.9-0.4-3.1-2.1-3.3-3.5C71.2,227.9,68.8,230.2,65.9,229.6z"/>
	<path class="st13" d="M54.9,221.7c0.2,2,1.7,3.2,3.2,4.1c1.3,0.8,2.9,1.3,4.6,1.3c-0.3-0.7-1-1.3-1.3-2.3c-0.3-1-0.1-2.2-0.5-3.3
		C58.6,222.7,54.9,221.7,54.9,221.7z"/>
	<path class="st13" d="M51.9,206.7c-2,2-1.6,7.7,1.5,8.2c0-2.6,1.6-3.4,3-4.6C53.1,209.7,51.9,206.7,51.9,206.7z"/>
	<path class="st13" d="M129.4,60.2c1.1,1.6-1.1,1.4-1.1,1.4c-7.8-4-9.3,0.9-9.3,0.9c-0.2,0.4-0.2,1.2,0.1,1.5c0.5,0.2,1-0.2,1-0.2
		c2.9-2.3,7.1,0,7.1,0c7.1,3.4,6.4-1.8,6.4-1.8c-1.2-7.4-12.6-7.6-12.6-7.6c-1.9-6.6-8-6.1-8-6.1c-3.6,0.2-6.3,1.5-6.6,4.9
		c-0.2,2.1,0.6,3.7,1.1,5.4c1.1-1.1,3.1-2.3,5.3-2.1c1.6,0.2,2.8,1.1,3.3,2.2C126.3,55.6,129.4,60.2,129.4,60.2z"/>
	<path class="st6" d="M129.3,64.5c-0.6-0.2-1.2-0.4-2-0.8c0,0-3.3-1.8-6-0.7c1.1,0,5.3,0.5,7,4.4c1.8,4.3-0.6,7.8-0.6,7.8
		c0.9-1.2,2.1-2.9,2.1-2.9c2.8-4.4,0-7.8,0-7.8C129.6,64.7,129.5,64.6,129.3,64.5z M133.8,62.7c-0.1,1-0.7,2.6-3.4,2.1
		c-0.1,0-0.2,0-0.2,0c0.1,0.1,0.6,0.6,0.6,0.6c1,0.1,2.3-0.6,2.3-0.6c0.1,0.8-0.5,1.1-0.5,1.1c0.8,3.6-0.5,7.8-0.5,7.8
		c0.3-0.5,0.7-0.2,0.7-0.2c0.4,0.6,1.1,0.5,1.1,0.5C136.5,67.8,134.2,63.5,133.8,62.7z"/>
	<path class="st14" d="M130.7,57.5c-0.2,0.2,1.1,2.3,1.5,3.1c0.3,0.8,1.1,4.5-4.1,2.1c-5.2-2.3-7.4-0.9-8,0.2c-0.6,1.1,0,0.7,0,0.7
		c2.9-2.3,7.1,0,7.1,0c7.1,3.4,6.4-1.8,6.4-1.8c-0.3-2-1.4-3.5-2.8-4.6C131,57.3,130.9,57.2,130.7,57.5z M108.8,57.5
		c1.2-0.6,2.6-1.3,4.2-1.1c1.6,0.2,2.8,1.1,3.3,2.2c10-3,13.1,1.6,13.1,1.6c0.3,0.4,0.3,0.7,0.3,0.9c0,0,0.6-0.3-0.1-1.3
		c-0.7-1.1-3.3-3.8-9.9-3.1c0,0-7.6-5.4-10.9,0.5C108.8,57.1,108.3,57.8,108.8,57.5z"/>
	<path class="st13" d="M127,43.7c11,2.2,11.9,0.8,11.9,0.8c0.9-3.7,1.7-7.3,3-10.6c1.2-3.4,2.9-6.3,4.4-9.1
		c-2.3,1.2-5.2,1.8-6.8,3.7c-1.4-1.8-4.1-0.4-4.7,1.1c0.2-1.8-0.7-2.7-2.3-2.7c1.3-2.1-1.1-3.7-2.7-2.6c-0.2-1.4-1.2-2.1-2-3
		c-0.7,1-1.6,1.7-1.5,3.4c-1.3-1.1-3.4,0-2.6,1.9c-2,0-2.4,2-2.5,3.7c-0.4-2.1-3.4-2.6-4.7-1.1c-0.9-2.5-4.7-2.2-6.3-3.9
		c2.9,5.3,5.1,11.5,6.9,17.9C121.6,42.7,127,43.7,127,43.7z"/>
	<path class="st14" d="M114.9,50.1c0,0,0.4,0.3,0.5,0.4c0.1,0.2,0.2,0.5-0.1,1.1c0,0-0.1,0.5-0.1,0.7c0,0-0.1,0.8-1.3-0.1
		c0,0,0.1,0.6,1.5,0.7c0,0,2.5-0.2,3.9,1.5c0,0,0.5,0.6,0.6,0.6c0.1,0,0.3-0.1,0.3-0.2C120.1,54.7,119.3,50.8,114.9,50.1z"/>
	<path class="st14" d="M116.8,29.6c0,0,0.5,0.4,0.3,2.9c-0.3,2.5,0.5,3.5,1,3.6c0.5,0.1,1.6,0.1,1.9-0.1c0,0,0-1,0.3-1.5
		c0.4-0.5,1.2-1.9,1.1-3.2c0,0,0.2,1.5-1.1,3.5c0,0-0.8,1.6,1.2,1.8c2,0.2,2.3-0.7,2.4-0.9s0-1-0.8-1.7c-0.8-0.7-1.1-1.7-1.1-1.7
		s1,1.5,1.6,2.1c0.6,0.5,0.7,1.5,0.1,2.1c0,0,0.1,0.4,0.8,0.2c0.8-0.3,2.5-1.6,2.8-3.3c0,0,0-0.7-0.5-1.2c-0.5-0.6-1.9-3.9,1.3-4.7
		c0,0,2.9-0.5,2.4,3.7c0,0-0.4,1.8-0.4,2.4c0,0.6-0.3,2.8,2.4,3.4c0,0-0.3-1.5,0.1-2.3c0.4-0.7,1.5-2.3,1.5-2.3s1-1.6-0.3-3.5
		c0,0,1.4,1.5,0.7,3.1c-0.7,1.6-3.2,4.1-0.9,5.1c0,0,2,0.5,2.4-1.1c0,0,0.2-0.9-0.3-2.1c-0.5-1.3-1-2.4-0.2-3.9c0,0-0.7,1.5,0.1,3.2
		c0.8,1.7,1,3.1,0.5,3.7c0,0,1.7,0.4,2.3-0.4c0.7-0.9,0.8-1.7,1.1-3.4c0.3-1.8,0.7-3.9,1.5-4.7c0,0-1,1.5-1.2,4.2
		c-0.2,2.7-0.5,4.5-1.6,4.7c-1.1,0.2-1.5,0.2-2.4,0.1c0,0-2,0.5-3.6,0c-1.6-0.5-2.6-1.9-2.6-4.8c0,0-0.5,0.1-0.7,0
		c0,0,0.9-0.2,1.1-1.3c0.3-1.1,0.1-3.3-1.7-3.3c0,0-2.1,0.1-1.9,2.4c0,0,0.1,1.2,0.8,2c0.7,0.8,0.3,2.3-0.4,3.1
		c-0.8,0.9-1.3,1.6-3.1,1.7c-1.8,0.2-3,0-3.6-0.6c0,0-2.5,0.7-3-1.1c0,0-0.2-0.6-0.1-2C117,31.8,117.1,30.7,116.8,29.6
		C116.8,29.7,116.7,29.6,116.8,29.6z"/>
	<path class="st14" d="M128,43.6c0,0,2.7,0.3,3.9,0.5c1.2,0.2,2.3,0.4,3.1,0.4c0.8,0,3-0.1,3-0.1v0.2c0,0-2.3,0.4-4.9,0
		C130.6,44.1,128,43.7,128,43.6L128,43.6z"/>
	<path class="st14" d="M118.9,41.7L118.9,41.7c0,0.1,3.4,0.2,4.3,0.3c0.9,0.1,3.4,0.3,3.9,0.3c0.5,0,4.6,0.4,5.7,0.5
		c1.2,0,4.7,0,4.8-0.1c0-0.1,0-0.1-0.5-0.1c-0.6,0-3,0-4.3,0c-1.3-0.1-3-0.2-3.5-0.2c-0.6-0.1-6.2-0.5-6.4-0.5
		C122.6,41.8,118.9,41.7,118.9,41.7z"/>
	<path class="st14" d="M123.9,38.2c-0.4-0.1-2.7-0.2-2.7-0.2c-2,0-2.5,0.1-2.5,1.1c0,1.1,0.6,1.1,0.6,1.1l0.9,0c0,0,2.9,0,3.6,0
		c0.7,0,0.7-0.7,0.8-1.2C124.6,38.6,124.3,38.4,123.9,38.2z M122.6,40.2h-3.3c-0.5-0.2-0.5-0.8-0.5-1.3c0-0.5,0.9-0.6,1.1-0.6
		c0.2,0,2.6,0,3,0c0.4,0,0.5,0.4,0.5,1.1C123.4,40.1,122.6,40.2,122.6,40.2z"/>
	<path class="st14" d="M137.6,38.9c-0.7-0.2-3.1-0.4-3.1-0.4c-1.5-0.1-1.8,0.6-1.6,1.6c0.2,0.9,2.9,1.1,4,1.1c1.2,0,1.7-0.5,1.7-1
		C138.7,39.8,138.3,39.1,137.6,38.9z M136.3,40.7c-1.6,0-3-0.3-3.1-0.4c-0.2-0.1-0.5-0.4-0.2-1.2c0,0,0.3-0.6,1.5-0.5
		c1.2,0.1,3,0.4,3.1,0.5C137.7,39.2,138,40.8,136.3,40.7z"/>
	<path class="st14" d="M131.6,39.2c0-0.7-0.8-0.9-1-0.9c-0.1,0-1.9-0.2-3.1-0.2c-0.4,0-0.7,0-0.9,0.1c-0.6,0.1-0.8,0.5-0.8,0.9
		c0,0.4,0.2,0.8,0.4,1c0.5,0.5,3.3,0.5,4.3,0.5c0,0,0,0,0,0C131.5,40.5,131.6,39.3,131.6,39.2L131.6,39.2L131.6,39.2
		C131.6,39.3,131.6,39.3,131.6,39.2z M126.6,38.2c0.2,0,0.5-0.1,0.9-0.1h0c1.1,0,2.4,0.1,2.9,0.2c0.1,0.2,0.5,1.4-0.8,1.7
		c0,0-2.8,0.1-3.5-0.1l0,0c-0.2-0.2-0.3-0.5-0.3-0.9C125.9,38.7,126.1,38.3,126.6,38.2z"/>
	<path class="st4" d="M135.8,229.5c-1.5-2.2-1.3-5.9-1.3-6.5c0-0.4-0.4-0.7-0.8-0.9c-0.3,1.1-0.7,2.3-1.1,3.4
		c2.7,12.8-3.8,21.1-3.8,21.1c-4.6-4.3-3.9-19.5-3.9-19.5l-0.1-0.1c-0.9,16.8,4.1,20.2,4.1,20.2l0.1,3c4.5-7,5.1-10.9,5.5-14.6
		c0.6-5.2-0.8-9.2-0.8-9.2l1.2,1.7L135.8,229.5z"/>
</g>
<g>
	<path class="st15" d="M375.9,109.1v13.1L361,126c2.7,4.2,4.1,9,4.1,14.2c0,10.2-3.5,18.1-10.6,23.8c-7.1,5.7-16.9,8.5-29.5,8.5
		l-4.7-0.3l-3.8-0.4c-2.7,2-4,4.3-4,6.8c0,3.7,4.7,5.6,14.2,5.6h16.1c10.4,0,18.3,2.2,23.8,6.7c5.4,4.5,8.2,11,8.2,19.7
		c0,11.1-4.6,19.7-13.8,25.8c-9.2,6.1-22.5,9.1-39.8,9.1c-13.2,0-23.3-2.3-30.3-6.9c-7-4.6-10.5-11.1-10.5-19.4
		c0-5.7,1.8-10.5,5.3-14.3c3.6-3.8,8.8-6.6,15.7-8.2c-2.7-1.1-5-3-6.9-5.5c-2-2.6-3-5.3-3-8.2c0-3.6,1-6.6,3.1-9
		c2.1-2.4,5.1-4.8,9.1-7.1c-5-2.1-8.9-5.6-11.8-10.3c-2.9-4.7-4.4-10.3-4.4-16.8c0-10.3,3.4-18.3,10.1-24c6.7-5.6,16.3-8.5,28.8-8.5
		c2.7,0,5.8,0.2,9.4,0.7c3.6,0.5,6,0.8,7,1.1H375.9z M302.8,217.2c0,3.6,1.7,6.4,5.1,8.4c3.4,2,8.2,3,14.4,3
		c9.3,0,16.5-1.3,21.8-3.8c5.3-2.5,7.9-6,7.9-10.4c0-3.6-1.6-6-4.7-7.4c-3.1-1.4-7.9-2-14.4-2h-13.4c-4.7,0-8.7,1.1-11.9,3.3
		C304.3,210.5,302.8,213.5,302.8,217.2z M312.2,140.1c0,5.1,1.2,9.2,3.5,12.2c2.3,3,5.9,4.5,10.7,4.5c4.9,0,8.4-1.5,10.7-4.5
		c2.3-3,3.4-7.1,3.4-12.2c0-11.4-4.7-17.1-14.1-17.1C316.9,123,312.2,128.7,312.2,140.1z"/>
	<path class="st15" d="M476.7,156.3c0,15.4-4.1,27.5-12.2,36.2c-8.1,8.7-19.5,13-34,13c-9.1,0-17.1-2-24.1-6
		c-6.9-4-12.3-9.7-16-17.2c-3.7-7.5-5.6-16.2-5.6-26.1c0-15.5,4-27.5,12.1-36.1c8.1-8.6,19.4-12.9,34.1-12.9c9.1,0,17.1,2,24.1,5.9
		c6.9,4,12.3,9.6,16,17C474.9,137.7,476.7,146.3,476.7,156.3z M411.3,156.3c0,9.4,1.5,16.5,4.6,21.3c3.1,4.8,8.1,7.2,15,7.2
		c6.9,0,11.8-2.4,14.9-7.2c3-4.8,4.5-11.9,4.5-21.3c0-9.4-1.5-16.4-4.6-21.1c-3-4.7-8-7-15-7c-6.9,0-11.9,2.3-14.9,7
		C412.8,139.8,411.3,146.8,411.3,156.3z"/>
	<path class="st15" d="M519.9,203.8l-36.1-94.7h27l18.3,54c2,6.8,3.3,13.3,3.8,19.4h0.5c0.3-5.4,1.6-11.9,3.8-19.4l18.2-54h27
		l-36.1,94.7H519.9z"/>
	<path class="st15" d="M585.8,191.7c0-4.7,1.3-8.3,3.8-10.8c2.5-2.4,6.2-3.6,11.1-3.6c4.7,0,8.3,1.2,10.9,3.7
		c2.6,2.5,3.9,6,3.9,10.7c0,4.5-1.3,8-3.9,10.5c-2.6,2.6-6.2,3.9-10.8,3.9c-4.7,0-8.4-1.3-11-3.8
		C587.1,199.8,585.8,196.2,585.8,191.7z"/>
	<path class="st15" d="M687.8,205.5c-11.1,0-19.9-4-26.2-12.1h-1.4c0.9,7.9,1.4,12.5,1.4,13.7v38.4h-25.8V109.1h21l3.6,12.3h1.2
		c6-9.4,15-14.1,26.9-14.1c11.2,0,19.9,4.3,26.3,13c6.3,8.6,9.5,20.6,9.5,36c0,10.1-1.5,18.9-4.4,26.3c-3,7.5-7.2,13.1-12.7,17
		C701.7,203.5,695.2,205.5,687.8,205.5z M680.2,128c-6.4,0-11,2-14,5.9c-2.9,3.9-4.5,10.4-4.6,19.4v2.8c0,10.2,1.5,17.4,4.5,21.9
		c3,4.4,7.8,6.6,14.4,6.6c11.6,0,17.4-9.5,17.4-28.6c0-9.3-1.4-16.3-4.3-21C690.8,130.3,686.3,128,680.2,128z"/>
	<path class="st15" d="M770.7,203.8h-25.8V72h25.8V203.8z"/>
</g>
</svg>
