<svg xmlns="http://www.w3.org/2000/svg" xmlns:xlink="http://www.w3.org/1999/xlink" width="20" height="20" viewBox="0 0 20 20">
    <defs>
        <path id="prefix__a" d="M7.191 12.387c-1.387 0-2.692-.541-3.673-1.522-2.025-2.026-2.025-5.321 0-7.347 1.013-1.013 2.343-1.52 3.673-1.52s2.66.507 3.673 1.52c2.025 2.025 2.025 5.322 0 7.347-.98.98-2.286 1.522-3.673 1.522zm10.61 4.43l-5.054-5.056c2.324-2.824 2.17-7.02-.469-9.657-2.805-2.805-7.369-2.805-10.174 0-2.806 2.805-2.806 7.37 0 10.176 1.36 1.358 3.165 2.107 5.087 2.107 1.5 0 2.924-.461 4.125-1.306l5.11 5.11 1.375-1.374z"/>
    </defs>
    <g fill="none" fill-rule="evenodd">
        <path d="M0 0H20V20H0z"/>
        <g transform="translate(1 1)">
            <mask id="prefix__b" fill="#fff">
                <use xlink:href="#prefix__a"/>
            </mask>
            <use fill="#0052A5" xlink:href="#prefix__a"/>
            <g fill="#0052A5" stroke="#979797" mask="url(#prefix__b)">
                <path d="M0.5 0.5H38.5V38.5H0.5z" transform="translate(-10 -11)"/>
            </g>
        </g>
    </g>
</svg>
