<?xml version="1.0" encoding="utf-8"?>
<!-- Generator: Adobe Illustrator 24.0.1, SVG Export Plug-In . SVG Version: 6.00 Build 0)  -->
<svg version="1.1" id="kwestionariusz" xmlns="http://www.w3.org/2000/svg" xmlns:xlink="http://www.w3.org/1999/xlink" x="0px"
	 y="0px" viewBox="0 0 30 30" style="enable-background:new 0 0 30 30;" xml:space="preserve">
<style type="text/css">
	.test-st0{fill:none;stroke:#0052A5;stroke-width:1.0669;stroke-linecap:round;stroke-linejoin:round;stroke-miterlimit:10;}
</style>
<path class="test-st0" d="M16.8,3.8c0-1.2-1-2.2-2.3-2.2s-2.3,1-2.3,2.2H9.5v3.8h10.1V3.8H16.8z"/>
<path class="test-st0" d="M19.6,5.7H21c1.3,0,2.3,1,2.3,2.3v16c0,1.3-1,2.3-2.3,2.3H8.2c-1.3,0-2.3-1-2.3-2.3V7.9c0-1.3,1-2.3,2.3-2.3
	h1.1"/>
<polyline class="test-st0" points="8,11.9 9.2,12.9 12,10.3 "/>
<line class="test-st0" x1="14" y1="11.6" x2="20.1" y2="11.6"/>
<polyline class="test-st0" points="8,17.2 9.2,18.3 12,15.6 "/>
<line class="test-st0" x1="14" y1="16.9" x2="20.1" y2="16.9"/>
<polyline class="test-st0" points="8,21.9 9.2,23 12,20.3 "/>
<line class="test-st0" x1="14" y1="21.6" x2="20.1" y2="21.6"/>
</svg>
