<?xml version="1.0" encoding="utf-8"?>
<!-- Generator: Adobe Illustrator 24.0.1, SVG Export Plug-In . SVG Version: 6.00 Build 0)  -->
<svg version="1.1" id="Warstwa_2_1_" xmlns="http://www.w3.org/2000/svg" xmlns:xlink="http://www.w3.org/1999/xlink" x="0px"
	 y="0px" viewBox="0 0 30 30" style="enable-background:new 0 0 30 30;" xml:space="preserve">
<style type="text/css">
	.bugs-st0{fill:none;stroke:#0052A5;stroke-width:1.0669;stroke-linecap:round;stroke-linejoin:round;stroke-miterlimit:10;}
	.bugs-st1{fill:#0052A5;}
</style>
<polyline class="bugs-st0" points="3.8,15.4 3.8,3.6 24.2,3.6 24.2,20 10.5,20 5.7,25.2 "/>
<g>
	<path class="bugs-st1" d="M12.7,15.5c0-0.3,0.1-0.6,0.3-0.7s0.4-0.3,0.8-0.3c0.3,0,0.6,0.1,0.8,0.3s0.3,0.4,0.3,0.7s-0.1,0.6-0.3,0.7
		s-0.4,0.3-0.8,0.3c-0.3,0-0.6-0.1-0.8-0.3S12.7,15.8,12.7,15.5z M14.5,13.4h-1.4l-0.3-5.7h2L14.5,13.4z"/>
</g>
</svg>
