<?xml version="1.0" encoding="utf-8"?>
<!-- Generator: Adobe Illustrator 24.0.1, SVG Export Plug-In . SVG Version: 6.00 Build 0)  -->
<svg version="1.1" id="zle-sie-czuje" xmlns="http://www.w3.org/2000/svg" xmlns:xlink="http://www.w3.org/1999/xlink" x="0px"
	 y="0px" viewBox="0 0 30 30" style="enable-background:new 0 0 30 30;" xml:space="preserve">
<style type="text/css">
	.bad-st0{fill:none;stroke:#0052A5;stroke-width:1.0669;stroke-linecap:round;stroke-linejoin:round;stroke-miterlimit:10;}
</style>
<path class="bad-st0" d="M24.7,10.3c0.7,1.4,1,3,1,4.7c0,6.2-5,11.1-11.1,11.1S3.4,21.1,3.4,15s5-11.1,11.1-11.1c1.4,0,2.7,0.3,4,0.7"/>
<path class="bad-st0" d="M18.8,21.1c-1-1.3-2.5-2.1-4.2-2.1s-3.3,0.9-4.2,2.2"/>
<g>
	<path class="bad-st0" d="M7.1,13.5c0.6-0.9,1.7-1.4,2.8-1.4s2.1,0.5,2.8,1.3"/>
	<path class="bad-st0" d="M16.5,13.5c0.6-0.9,1.7-1.4,2.8-1.4c1.1,0,2.1,0.5,2.8,1.3"/>
</g>
<path class="bad-st0" d="M23.6,8c0,1.2-1,2.1-2.1,2.1s-2.1-1-2.1-2.1s2.1-4,2.1-4S23.6,6.8,23.6,8z"/>
</svg>
