<?xml version="1.0" encoding="utf-8"?>
<!-- Generator: Adobe Illustrator 24.0.1, SVG Export Plug-In . SVG Version: 6.00 Build 0)  -->
<svg version="1.1" id="Warstwa_2_1_" xmlns="http://www.w3.org/2000/svg" xmlns:xlink="http://www.w3.org/1999/xlink" x="0px"
	 y="0px" viewBox="0 0 30 30" style="enable-background:new 0 0 30 30;" xml:space="preserve">
<style type="text/css">
	.number-alarm-st0{fill:none;stroke:#D5233F;stroke-width:1.0669;stroke-linecap:round;stroke-linejoin:round;stroke-miterlimit:10;}
</style>
<polyline class="number-alarm-st0" points="11.6,16.5 24.2,16.5 16.7,3.5 11.8,11.9 "/>
<path class="number-alarm-st0" d="M16.7,7.6v4.3 M16.7,14v0.3"/>
<path class="number-alarm-st0" d="M19.8,26.5c-9,0-16.2-7.5-16.2-16.7c0-0.7,0.6-1.3,1.3-1.3h3.2c0.7,0,1.3,0.6,1.3,1.3c0,1.1,0.1,2.3,0.5,3.3
	c0.1,0.5,0,1-0.3,1.3l-1.9,1.9c1.3,2.5,3.3,4.5,5.7,5.8l1.9-1.9c0.4-0.4,0.9-0.5,1.3-0.3c1.1,0.4,2.1,0.5,3.2,0.5
	c0.7,0,1.3,0.6,1.3,1.3V25c0,0.4-0.2,1-0.3,1.2C20.5,26.5,20.1,26.5,19.8,26.5z"/>
</svg>
