<?xml version="1.0" encoding="utf-8"?>
<!-- Generator: Adobe Illustrator 24.0.1, SVG Export Plug-In . SVG Version: 6.00 Build 0)  -->
<svg version="1.1" id="jak-to-dziala" xmlns="http://www.w3.org/2000/svg" xmlns:xlink="http://www.w3.org/1999/xlink" x="0px"
	 y="0px" viewBox="0 0 30 30" style="enable-background:new 0 0 30 30;" xml:space="preserve">
<style type="text/css">
	.how-st0{fill:none;stroke:#0052A5;stroke-width:1.0669;stroke-linecap:round;stroke-linejoin:round;stroke-miterlimit:10;}
	.how-st1{fill:#0052A5;}
</style>
<line class="how-st0" x1="7.1" y1="6.5" x2="22.3" y2="6.5"/>
<line class="how-st0" x1="12" y1="4.7" x2="17.4" y2="4.7"/>
<path class="how-st0" d="M20.7,27.1h-12c-1,0-1.9-0.8-1.9-1.9V4.8c0-1,0.8-1.9,1.9-1.9h12c1,0,1.9,0.8,1.9,1.9v20.4
	C22.6,26.2,21.7,27.1,20.7,27.1z"/>
<g>
	<path class="how-st1" d="M13.3,17.4v-0.5c0-0.5,0.1-0.9,0.3-1.2s0.6-0.7,1.1-1.1c0.5-0.4,0.8-0.6,1-0.9c0.2-0.2,0.2-0.5,0.2-0.7
		c0-0.3-0.1-0.5-0.3-0.7s-0.5-0.2-1-0.2c-0.7,0-1.5,0.2-2.4,0.7l-0.8-1.6c1.1-0.6,2.2-0.9,3.4-0.9c1,0,1.8,0.2,2.3,0.7
		c0.6,0.5,0.9,1.1,0.9,1.9c0,0.5-0.1,1-0.4,1.4c-0.2,0.4-0.7,0.8-1.4,1.3c-0.5,0.3-0.7,0.6-0.9,0.8s-0.2,0.4-0.2,0.7v0.4h-1.8V17.4z
		 M13.1,19.9c0-0.4,0.1-0.7,0.3-0.9c0.2-0.2,0.5-0.3,0.9-0.3s0.7,0.1,0.9,0.3s0.3,0.5,0.3,0.9s-0.1,0.7-0.3,0.9s-0.5,0.3-0.9,0.3
		s-0.7-0.1-0.9-0.3S13.1,20.3,13.1,19.9z"/>
</g>
<line class="how-st0" x1="7.2" y1="24" x2="22.2" y2="24"/>
</svg>
