<?xml version="1.0" encoding="utf-8"?>
<!-- Generator: Adobe Illustrator 24.0.1, SVG Export Plug-In . SVG Version: 6.00 Build 0)  -->
<svg version="1.1" id="dziennik" xmlns="http://www.w3.org/2000/svg" xmlns:xlink="http://www.w3.org/1999/xlink" x="0px" y="0px"
	 viewBox="0 0 30 30" style="enable-background:new 0 0 30 30;" xml:space="preserve">
<style type="text/css">
	.diary-st0{fill:none;stroke:#0052A5;stroke-width:1.0669;stroke-linecap:round;stroke-linejoin:round;stroke-miterlimit:10;}
</style>
<line class="diary-st0" x1="8.1" y1="26.5" x2="8.1" y2="3.4"/>
<path class="diary-st0" d="M2.7,23.8h2.9 M2.7,6h2.9 M2.7,9.6h2.9 M2.7,13.2h2.9 M2.7,16.7h2.9 M2.7,20.3h2.9"/>
<polygon class="diary-st0" points="15.2,22.7 11.7,23.7 12.9,20.4 24.2,9.2 26.4,11.4 "/>
<line class="diary-st0" x1="13.3" y1="20.3" x2="15.3" y2="22.3"/>
<line class="diary-st0" x1="23.2" y1="10.4" x2="25.2" y2="12.4"/>
<path class="diary-st0" d="M22.2,18.3v6.8c0,0.9-0.7,1.7-1.7,1.7H6.1c-0.9,0-1.7-0.7-1.7-1.7V4.9c0-0.9,0.7-1.7,1.7-1.7h14.5
	c0.9,0,1.7,0.7,1.7,1.7v3.8"/>
</svg>
