<svg xmlns="http://www.w3.org/2000/svg" width="104.629" height="105" viewBox="0 0 104.629 105"><defs><style>.a{fill:#0052a5;}</style></defs><g transform="translate(-8762.837 -904.566)"><path class="a" d="M61.521,32.538l-7,4.019-7,4.019V37.206H11.865V58.987H43.759V90.882H65.54V79.732l9.335-7.649v18.67a9.2,9.2,0,0,1-2.852,6.742,9.727,9.727,0,0,1-6.742,2.852H43.889a9.2,9.2,0,0,1-6.742-2.852,9.727,9.727,0,0,1-2.852-6.742v-22.3h-22.3A9.2,9.2,0,0,1,5.252,65.6,9.727,9.727,0,0,1,2.4,58.858V37.465a9.2,9.2,0,0,1,2.852-6.742,9.727,9.727,0,0,1,6.742-2.852H47.648V24.5l7,4.019Z" transform="translate(8760.438 909.22)"/><path class="a" d="M27,30.145V11.994a9.2,9.2,0,0,1,2.852-6.742A9.727,9.727,0,0,1,36.594,2.4H58.116a9.2,9.2,0,0,1,6.742,2.852,9.727,9.727,0,0,1,2.852,6.742v22.43H90.14a9.2,9.2,0,0,1,6.742,2.852,9.727,9.727,0,0,1,2.852,6.742V65.411a9.2,9.2,0,0,1-2.852,6.742A9.975,9.975,0,0,1,90.14,75H54.486v3.371l-7-4.019-7-4.019,7-4.019,7-4.019V65.67H90.27V43.889H58.246V11.865H36.465v11.8Z" transform="translate(8767.731 902.166)"/></g></svg>