<svg xmlns="http://www.w3.org/2000/svg" xmlns:xlink="http://www.w3.org/1999/xlink" width="20" height="20" viewBox="0 0 20 20">
    <defs>
        <path id="prefix__a" d="M5.57 3.915L9.023.475c.452-.45 1.185-.45 1.637 0 .452.45.452 1.18 0 1.63l-3.454 3.44 3.364 3.35c.452.45.452 1.18 0 1.629-.452.45-1.185.45-1.637 0L5.57 7.174l-3.504 3.489c-.452.45-1.185.45-1.637 0-.452-.45-.452-1.18 0-1.63l3.503-3.488L.34 1.967c-.452-.45-.452-1.18 0-1.63.452-.45 1.185-.45 1.637 0L5.57 3.915z"/>
    </defs>
    <g fill="none" fill-rule="evenodd">
        <path d="M0 0H20V20H0z"/>
        <g transform="translate(5 5)">
            <mask id="prefix__b" fill="#fff">
                <use xlink:href="#prefix__a"/>
            </mask>
            <use fill="#000" xlink:href="#prefix__a"/>
            <use fill="#1B1B1B" xlink:href="#prefix__a"/>
            <path fill="#0052A5" d="M-5 -5H15V15H-5z" mask="url(#prefix__b)"/>
        </g>
    </g>
</svg>
