<?xml version="1.0" encoding="utf-8"?>
<!-- Generator: Adobe Illustrator 24.0.1, SVG Export Plug-In . SVG Version: 6.00 Build 0)  -->
<svg version="1.1" id="Warstwa_1" xmlns="http://www.w3.org/2000/svg" xmlns:xlink="http://www.w3.org/1999/xlink" x="0px" y="0px"
	 viewBox="0 0 40 40" style="enable-background:new 0 0 40 40;" xml:space="preserve">
<style type="text/css">
	.st0{fill:none;stroke:#1B1B1B;stroke-linecap:round;stroke-linejoin:round;}
</style>
<path id="Shape_2_" class="st0" d="M2.5,22.3c0.3,0.8,0.8,1.9,0.6,2.4c-0.3,0.7-0.3,0.8-0.4,1c-0.1,0.2,4.4,2.3,4.9,2.6
	c0.4,0.4,1.2,1.3,1.8,1.5c0.6,0.3,0.6,0.5,1.6,0.5c0.9,0,1.9,0.2,3.5,2c1.7,1.8,2.4,1.3,2.9,1.8s0.7,1.8,1.6,1.9
	c0.9,0.1,1.1-0.2,1.7,0.5s1.8,0.6,3.1,0.6c1.3,0,1.8-0.6,2.5-0.6c0.7-0.1,1.3-0.6,3.2,0.3s2.7,1.3,4,1.4c1.2,0.1,0.6-0.4,0.4-1.4
	c-0.2-1.3,0.1-2.6,0.8-3.6c0.8-1.1,2.1-2.8,2.6-3.3c0.6-0.5,1.8-0.9,1.3-2.3c-0.2-0.5-0.5-1-0.9-1.6c0,0-1.1-2.4-1.3-3.5
	c-0.2-1.2-0.2-3.4-0.2-3.4c0-0.2-0.1-0.3-0.2-0.5c-0.5-0.6,0.1-1.1,0.6-2.8s0.1-3.2-0.2-5.1s-0.3-3.1-1.3-3.9
	C34,6,34.4,5.6,33.5,5.5c-0.9-0.2-2.3,1-5.1,0.5S22.5,5.7,22,5.3c-0.5-0.4-0.8-0.2-0.8-0.2c-0.9,0.6-2.8,1-3.4,0.4
	C17.1,4.9,17,3.8,17,3.2s0.2-0.6-2.8-0.2s-3.5,0.7-4.8,1.4C8.1,5.2,6.6,5.5,4.2,6.7c-2,1-2.7,1.4-2.8,2.6c-0.1,1.2,0.7,2.6,0,3.5"/>
<polyline class="st0" points="1.8,19.8 21.3,19.8 21.3,22.7 26.8,17.9 21.3,13.2 21.3,16.1 0.9,16.1 "/>
</svg>
