<?xml version="1.0" encoding="utf-8"?>
<!-- Generator: Adobe Illustrator 24.0.1, SVG Export Plug-In . SVG Version: 6.00 Build 0)  -->
<svg version="1.1" id="Search-bue" xmlns="http://www.w3.org/2000/svg" xmlns:xlink="http://www.w3.org/1999/xlink" x="0px" y="0px"
	 viewBox="0 0 25 25" style="enable-background:new 0 0 25 25;" xml:space="preserve">
<style type="text/css">
	.st0{fill:none;stroke-width:1.68;stroke-linecap:round;stroke-linejoin:round;stroke-miterlimit:10;}
	.st1{fill:#FFFFFF;}
</style>
<g>
	<path class="st0" d="M16.7,16.8c-3.5,3.5-9.3,3.5-12.8,0C0.3,13.3,0.3,7.6,3.9,4s9.3-3.5,12.8,0C20.2,7.6,20.2,13.3,16.7,16.8z"/>
	<line class="st0" x1="23.5" y1="23.7" x2="16.7" y2="16.8"/>
</g>
<g>
	<path class="st1" d="M8.7,12.3v-0.6c0-0.5,0.1-0.9,0.3-1.3c0.2-0.4,0.6-0.7,1.1-1.1c0.5-0.4,0.9-0.7,1-0.9c0.2-0.2,0.3-0.5,0.3-0.8
		c0-0.3-0.1-0.6-0.4-0.8c-0.2-0.2-0.6-0.3-1-0.3c-0.8,0-1.6,0.2-2.6,0.7L6.6,5.7c1.1-0.6,2.3-0.9,3.6-0.9c1,0,1.9,0.3,2.5,0.8
		s0.9,1.2,0.9,2c0,0.6-0.1,1-0.4,1.4c-0.3,0.4-0.7,0.9-1.4,1.4c-0.5,0.4-0.8,0.6-0.9,0.8c-0.1,0.2-0.2,0.4-0.2,0.7v0.5H8.7z
		 M8.4,14.9c0-0.4,0.1-0.7,0.3-1c0.2-0.2,0.6-0.3,1-0.3c0.4,0,0.7,0.1,1,0.3s0.3,0.5,0.3,1c0,0.4-0.1,0.7-0.3,0.9
		c-0.2,0.2-0.6,0.3-1,0.3c-0.4,0-0.8-0.1-1-0.3C8.5,15.6,8.4,15.3,8.4,14.9z"/>
</g>
</svg>
