<?xml version="1.0" encoding="utf-8"?>
<!-- Generator: Adobe Illustrator 24.0.1, SVG Export Plug-In . SVG Version: 6.00 Build 0)  -->
<svg version="1.1" id="Warstwa_3" xmlns="http://www.w3.org/2000/svg" xmlns:xlink="http://www.w3.org/1999/xlink" x="0px" y="0px"
	 viewBox="0 0 40 40" style="enable-background:new 0 0 40 40;" xml:space="preserve">
<style type="text/css">
	.st0{fill:none;stroke:#1B1B1B;stroke-linecap:round;stroke-linejoin:round;}
</style>
<g>
	<g>
		<path class="st0" d="M18.6,7.2c-0.5-0.6-0.8-1.3-0.8-2c0-2.4,2.9-4.3,6.5-4.3s6.5,1.9,6.5,4.3c0,0.6-0.2,1.2-0.5,1.7"/>
		<path id="Oval_3_" class="st0" d="M24.4,5.7c-5,0-9.3,3.2-10.9,7.7c-0.5,1.3-0.8,2.7-0.8,4.2c0,6.5,5.2,11.8,11.7,11.8
			S36.1,24,36.1,17.5S30.8,5.7,24.4,5.7z"/>
		<path class="st0" d="M24.4,7.2"/>
		<path class="st0" d="M24.4,9.9c0,0,4.2,4.3,11,3.5"/>
		<circle class="st0" cx="28.6" cy="17.5" r="2.8"/>
		<path class="st0" d="M24.4,9.9c0,0-4.2,4.3-11,3.5"/>
		<circle class="st0" cx="20.2" cy="17.5" r="2.8"/>
		<path class="st0" d="M13.9-0.2"/>
		<path class="st0" d="M25.9,17.8c0-0.8-0.6-1.5-1.5-1.5c-0.8,0-1.5,0.6-1.5,1.5"/>
	</g>
</g>
<g id="Robotix_3_">
	<g id="telefon_2_">
		<g transform="translate(4.200000, 4.200000)">
			<path class="st0" d="M18,34.4c-10.4,0-18.7-8.7-18.7-19.3c0-0.8,0.7-1.5,1.5-1.5h3.7c0.8,0,1.5,0.7,1.5,1.5
				c0,1.3,0.2,2.6,0.6,3.9c0.2,0.6,0,1.2-0.3,1.5l-2.1,2.2c1.5,2.9,3.8,5.2,6.6,6.8l2.1-2.2c0.4-0.4,1-0.6,1.5-0.3
				c1.2,0.4,2.5,0.6,3.7,0.6c0.8,0,1.5,0.7,1.5,1.5V33c0,0.4-0.2,0.8-0.5,1.1C18.7,34.3,18.4,34.4,18,34.4z"/>
		</g>
	</g>
</g>
</svg>
