<?xml version="1.0" encoding="utf-8"?>
<!-- Generator: Adobe Illustrator 23.0.3, SVG Export Plug-In . SVG Version: 6.00 Build 0)  -->
<svg version="1.1" id="Warstwa_1" xmlns="http://www.w3.org/2000/svg" xmlns:xlink="http://www.w3.org/1999/xlink" x="0px" y="0px"
	 width="20px" height="20px" viewBox="0 0 20 20" style="enable-background:new 0 0 20 20;" xml:space="preserve">
<style type="text/css">
	.st0{fill:none;}
	.st1{fill:#D5233F;}
	.st2{enable-background:new    ;}
</style>
<path class="st0" d="M0,0h20v20H0V0z"/>
<g>
	<path class="st1" d="M17.901,17.538H2.099L10,2.864L17.901,17.538z M3.901,16.462h12.197L10,5.136L3.901,16.462z"/>
</g>
<g class="st2">
	<path class="st1" d="M9.231,14.371c0-0.246,0.066-0.432,0.198-0.558s0.324-0.188,0.576-0.188c0.243,0,0.431,0.064,0.565,0.193
		c0.133,0.129,0.2,0.313,0.2,0.553c0,0.232-0.067,0.414-0.202,0.548c-0.135,0.133-0.323,0.2-0.563,0.2
		c-0.246,0-0.437-0.065-0.571-0.196C9.298,14.793,9.231,14.609,9.231,14.371z M10.545,12.869H9.472L9.248,8.575h1.521L10.545,12.869
		z"/>
</g>
</svg>
